<svg version="1.1" viewBox="0.0 0.0 960.0 720.0" fill="none" stroke="none" stroke-linecap="square" stroke-miterlimit="10" xmlns:xlink="http://www.w3.org/1999/xlink" xmlns="http://www.w3.org/2000/svg"><clipPath id="p.0"><path d="m0 0l960.0 0l0 720.0l-960.0 0l0 -720.0z" clip-rule="nonzero"/></clipPath><g clip-path="url(#p.0)"><path fill="#000000" fill-opacity="0.0" d="m0 0l960.0 0l0 720.0l-960.0 0z" fill-rule="evenodd"/><path fill="#b7b7b7" d="m176.0 246.96156l0 0c0 -25.936157 21.025406 -46.961563 46.961563 -46.961563l187.84065 0l0 0c12.454987 0 24.399841 4.9477234 33.20685 13.75473c8.807007 8.806992 13.75473 20.751862 13.75473 33.206833l0 226.07686c0 25.936157 -21.025421 46.96158 -46.96158 46.96158l-187.84065 0c-25.936157 0 -46.961563 -21.025421 -46.961563 -46.96158z" fill-rule="evenodd"/><path stroke="#000000" stroke-width="1.0" stroke-linejoin="round" stroke-linecap="butt" d="m176.0 246.96156l0 0c0 -25.936157 21.025406 -46.961563 46.961563 -46.961563l187.84065 0l0 0c12.454987 0 24.399841 4.9477234 33.20685 13.75473c8.807007 8.806992 13.75473 20.751862 13.75473 33.206833l0 226.07686c0 25.936157 -21.025421 46.96158 -46.96158 46.96158l-187.84065 0c-25.936157 0 -46.961563 -21.025421 -46.961563 -46.96158z" fill-rule="evenodd"/><path fill="#000000" fill-opacity="0.0" d="m194.375 224.61539l245.00787 0l0 89.165344l-245.00787 0z" fill-rule="evenodd"/><path fill="#000000" d="m245.96902 251.53539l2.796875 -13.359375l2.75 0l-2.796875 13.359375l-2.75 0zm7.3551636 -9.671875l2.46875 0l-0.25 1.25q0.921875 -0.796875 1.71875 -1.140625q0.8125 -0.34375 1.71875 -0.34375q1.1875 0 1.875 0.6875q0.6875 0.6875 0.6875 1.8125q0 0.515625 -0.296875 1.9375l-1.140625 5.46875l-2.609375 0l1.140625 -5.5q0.25 -1.21875 0.25 -1.453125q0 -0.5 -0.296875 -0.78125q-0.296875 -0.296875 -0.8125 -0.296875q-0.578125 0 -1.28125 0.484375q-0.703125 0.484375 -1.109375 1.265625q-0.28125 0.5625 -0.640625 2.3125l-0.84375 3.96875l-2.609375 0l2.03125 -9.671875zm16.067871 0l-0.390625 1.90625l-1.859375 0l-1.625 7.765625l-2.609375 0l1.625 -7.765625l-1.453125 0l0.390625 -1.90625l1.46875 0l0.203125 -1.0q0.25 -1.21875 0.484375 -1.640625q0.3125 -0.59375 0.921875 -0.921875q0.609375 -0.34375 1.609375 -0.34375q1.203125 0 2.53125 0.4375l-0.515625 1.859375q-0.9375 -0.3125 -1.515625 -0.3125q-0.453125 0 -0.671875 0.28125q-0.140625 0.1875 -0.296875 0.953125l-0.140625 0.6875l1.84375 0zm1.353302 0l2.4375 0l-0.390625 1.875q1.375 -2.109375 2.96875 -2.109375q0.5625 0 1.203125 0.28125l-1.0 2.140625q-0.359375 -0.125 -0.75 -0.125q-0.6875 0 -1.390625 0.515625q-0.6875 0.5 -1.078125 1.359375q-0.390625 0.859375 -0.765625 2.703125l-0.640625 3.03125l-2.625 0l2.03125 -9.671875zm9.072754 2.734375l-2.546875 -0.21875q0.4375 -1.28125 1.515625 -2.015625q1.09375 -0.734375 2.890625 -0.734375q1.859375 0 2.75 0.75q0.90625 0.75 0.90625 1.84375q0 0.4375 -0.078125 0.9375q-0.078125 0.484375 -0.546875 2.578125q-0.375 1.734375 -0.375 2.421875q0 0.625 0.21875 1.375l-2.546875 0q-0.15625 -0.53125 -0.1875 -1.09375q-0.578125 0.640625 -1.328125 0.984375q-0.75 0.34375 -1.5 0.34375q-1.203125 0 -1.984375 -0.78125q-0.78125 -0.796875 -0.78125 -2.046875q0 -1.375 0.859375 -2.203125q0.859375 -0.828125 3.0625 -1.0q1.875 -0.15625 2.5 -0.375q0.171875 -0.546875 0.171875 -0.875q0 -0.421875 -0.34375 -0.703125q-0.328125 -0.28125 -1.0 -0.28125q-0.703125 0 -1.109375 0.296875q-0.40625 0.28125 -0.546875 0.796875zm2.484375 2.421875q-0.234375 0.0625 -0.625 0.125q-1.96875 0.234375 -2.578125 0.6875q-0.421875 0.328125 -0.421875 0.890625q0 0.453125 0.328125 0.765625q0.328125 0.3125 0.859375 0.3125q0.59375 0 1.109375 -0.28125q0.53125 -0.296875 0.796875 -0.734375q0.265625 -0.453125 0.453125 -1.40625l0.078125 -0.359375z" fill-rule="nonzero"/><path fill="#000000" d="m291.64276 251.53539l2.796875 -13.359375l2.609375 0l-1.453125 6.953125l3.40625 -3.265625l3.390625 0l-3.890625 3.515625l2.078125 6.15625l-2.625 0l-1.328125 -4.46875l-1.765625 1.5625l-0.609375 2.90625l-2.609375 0zm13.688232 -7.34375q-0.703125 -0.46875 -1.0625 -1.078125q-0.34375 -0.609375 -0.34375 -1.34375q0 -0.859375 0.484375 -1.734375q0.5 -0.890625 1.46875 -1.390625q0.984375 -0.515625 2.21875 -0.515625q1.796875 0 2.796875 0.9375q1.0 0.921875 1.0 2.34375q0 1.0 -0.5625 1.75q-0.5625 0.734375 -1.703125 1.21875q0.828125 0.5 1.234375 1.21875q0.40625 0.71875 0.40625 1.640625q0 1.515625 -0.96875 2.75q-1.40625 1.78125 -3.84375 1.78125q-1.765625 0 -2.84375 -1.03125q-1.0625 -1.046875 -1.0625 -2.671875q0 -1.328125 0.734375 -2.390625q0.75 -1.0625 2.046875 -1.484375zm0.984375 -2.25q0 0.625 0.375 1.015625q0.390625 0.390625 1.0 0.390625q0.703125 0 1.234375 -0.53125q0.53125 -0.53125 0.53125 -1.25q0 -0.640625 -0.390625 -1.046875q-0.390625 -0.40625 -1.0 -0.40625q-0.71875 0 -1.234375 0.53125q-0.515625 0.53125 -0.515625 1.296875zm-1.171875 6.171875q0 0.75 0.40625 1.1875q0.421875 0.421875 1.078125 0.421875q1.015625 0 1.5625 -0.890625q0.546875 -0.890625 0.546875 -1.9375q0 -0.671875 -0.421875 -1.109375q-0.421875 -0.4375 -1.078125 -0.4375q-0.828125 0 -1.46875 0.765625q-0.625 0.75 -0.625 2.0zm6.953827 0.71875l2.53125 -0.40625q0.34375 0.796875 0.84375 1.140625q0.5 0.328125 1.359375 0.328125q0.90625 0 1.4375 -0.40625q0.375 -0.265625 0.375 -0.65625q0 -0.265625 -0.1875 -0.46875q-0.203125 -0.203125 -1.09375 -0.5q-2.359375 -0.78125 -2.9375 -1.234375q-0.875 -0.71875 -0.875 -1.859375q0 -1.15625 0.859375 -1.984375q1.1875 -1.15625 3.546875 -1.15625q1.859375 0 2.8125 0.6875q0.953125 0.6875 1.21875 1.84375l-2.421875 0.421875q-0.1875 -0.53125 -0.609375 -0.796875q-0.59375 -0.34375 -1.40625 -0.34375q-0.828125 0 -1.1875 0.28125q-0.359375 0.265625 -0.359375 0.609375q0 0.375 0.375 0.609375q0.21875 0.140625 1.46875 0.515625q1.90625 0.546875 2.546875 1.09375q0.921875 0.75 0.921875 1.8125q0 1.375 -1.15625 2.390625q-1.15625 1.015625 -3.265625 1.015625q-2.09375 0 -3.25 -0.765625q-1.140625 -0.78125 -1.546875 -2.171875z" fill-rule="nonzero"/><path fill="#000000" d="m334.5626 247.89476l2.53125 0.40625q-0.625 1.6875 -1.859375 2.578125q-1.21875 0.890625 -2.84375 0.890625q-1.859375 0 -2.9375 -1.109375q-1.078125 -1.109375 -1.078125 -3.03125q0 -1.578125 0.65625 -2.984375q0.65625 -1.40625 1.96875 -2.203125q1.328125 -0.8125 2.90625 -0.8125q1.703125 0 2.71875 0.90625q1.03125 0.890625 1.15625 2.34375l-2.484375 0.265625q-0.09375 -0.8125 -0.5 -1.1875q-0.40625 -0.390625 -1.0625 -0.390625q-0.75 0 -1.40625 0.5625q-0.65625 0.5625 -1.015625 1.6875q-0.34375 1.125 -0.34375 2.109375q0 0.859375 0.421875 1.328125q0.421875 0.453125 1.046875 0.453125q0.625 0 1.203125 -0.453125q0.59375 -0.453125 0.921875 -1.359375zm3.797577 3.640625l2.796875 -13.359375l2.59375 0l-2.78125 13.359375l-2.609375 0zm7.198944 -9.671875l2.609375 0l-1.1875 5.734375q-0.21875 1.015625 -0.21875 1.28125q0 0.421875 0.3125 0.71875q0.3125 0.296875 0.796875 0.296875q0.34375 0 0.671875 -0.125q0.34375 -0.140625 0.6875 -0.40625q0.359375 -0.265625 0.640625 -0.609375q0.28125 -0.359375 0.53125 -0.921875q0.171875 -0.421875 0.375 -1.359375l0.96875 -4.609375l2.609375 0l-2.015625 9.671875l-2.4375 0l0.265625 -1.3125q-1.609375 1.546875 -3.484375 1.546875q-1.203125 0 -1.890625 -0.6875q-0.671875 -0.6875 -0.671875 -1.828125q0 -0.5 0.3125 -2.0l1.125 -5.390625zm9.052216 6.96875l2.53125 -0.40625q0.34375 0.796875 0.84375 1.140625q0.5 0.328125 1.359375 0.328125q0.90625 0 1.4375 -0.40625q0.375 -0.265625 0.375 -0.65625q0 -0.265625 -0.1875 -0.46875q-0.203125 -0.203125 -1.09375 -0.5q-2.359375 -0.78125 -2.9375 -1.234375q-0.875 -0.71875 -0.875 -1.859375q0 -1.15625 0.859375 -1.984375q1.1875 -1.15625 3.546875 -1.15625q1.859375 0 2.8125 0.6875q0.953125 0.6875 1.21875 1.84375l-2.421875 0.421875q-0.1875 -0.53125 -0.609375 -0.796875q-0.59375 -0.34375 -1.40625 -0.34375q-0.828125 0 -1.1875 0.28125q-0.359375 0.265625 -0.359375 0.609375q0 0.375 0.375 0.609375q0.21875 0.140625 1.46875 0.515625q1.90625 0.546875 2.546875 1.09375q0.921875 0.75 0.921875 1.8125q0 1.375 -1.15625 2.390625q-1.15625 1.015625 -3.265625 1.015625q-2.09375 0 -3.25 -0.765625q-1.140625 -0.78125 -1.546875 -2.171875zm11.375732 -5.03125l0.390625 -1.9375l1.28125 0l0.3125 -1.546875l3.0 -1.8125l-0.703125 3.359375l1.59375 0l-0.390625 1.9375l-1.609375 0l-0.84375 4.046875q-0.234375 1.109375 -0.234375 1.265625q0 0.296875 0.1875 0.46875q0.203125 0.171875 0.703125 0.171875q0.171875 0 0.859375 -0.0625l-0.40625 1.9375q-0.671875 0.140625 -1.390625 0.140625q-1.375 0 -2.015625 -0.53125q-0.625 -0.546875 -0.625 -1.484375q0 -0.453125 0.34375 -2.0625l0.8125 -3.890625l-1.265625 0zm14.978302 3.703125l-6.5625 0q-0.015625 0.15625 -0.015625 0.234375q0 0.96875 0.546875 1.5625q0.5625 0.59375 1.359375 0.59375q1.296875 0 2.03125 -1.34375l2.328125 0.390625q-0.671875 1.40625 -1.828125 2.125q-1.140625 0.703125 -2.5625 0.703125q-1.9375 0 -3.171875 -1.234375q-1.21875 -1.234375 -1.21875 -3.265625q0 -2.0 1.109375 -3.546875q1.5 -2.09375 4.296875 -2.09375q1.765625 0 2.8125 1.109375q1.046875 1.09375 1.046875 3.0625q0 0.953125 -0.171875 1.703125zm-2.203125 -1.59375q0 -0.171875 0 -0.265625q0 -1.0625 -0.484375 -1.59375q-0.484375 -0.546875 -1.296875 -0.546875q-0.796875 0 -1.453125 0.609375q-0.640625 0.609375 -0.859375 1.796875l4.09375 0zm5.031952 -4.046875l2.4375 0l-0.390625 1.875q1.375 -2.109375 2.96875 -2.109375q0.5625 0 1.203125 0.28125l-1.0 2.140625q-0.359375 -0.125 -0.75 -0.125q-0.6875 0 -1.390625 0.515625q-0.6875 0.5 -1.078125 1.359375q-0.390625 0.859375 -0.765625 2.703125l-0.640625 3.03125l-2.625 0l2.03125 -9.671875z" fill-rule="nonzero"/><path fill="#000000" d="m291.90564 273.53537l-2.96875 -9.671875l1.703125 0l1.53125 5.578125l0.578125 2.078125q0.046875 -0.15625 0.5 -2.0l1.546875 -5.65625l1.6875 0l1.4375 5.609375l0.484375 1.84375l0.5625 -1.859375l1.65625 -5.59375l1.59375 0l-3.03125 9.671875l-1.703125 0l-1.53125 -5.796875l-0.375 -1.640625l-1.953125 7.4375l-1.71875 0zm11.082306 -4.84375q0 -2.6875 1.484375 -3.96875q1.25 -1.078125 3.046875 -1.078125q2.0 0 3.265625 1.3125q1.265625 1.296875 1.265625 3.609375q0 1.859375 -0.5625 2.9375q-0.5625 1.0625 -1.640625 1.65625q-1.0625 0.59375 -2.328125 0.59375q-2.03125 0 -3.28125 -1.296875q-1.25 -1.3125 -1.25 -3.765625zm1.6875 0q0 1.859375 0.796875 2.796875q0.8125 0.921875 2.046875 0.921875q1.21875 0 2.03125 -0.921875q0.8125 -0.9375 0.8125 -2.84375q0 -1.796875 -0.8125 -2.71875q-0.8125 -0.921875 -2.03125 -0.921875q-1.234375 0 -2.046875 0.921875q-0.796875 0.90625 -0.796875 2.765625zm9.281982 4.84375l0 -9.671875l1.46875 0l0 1.46875q0.5625 -1.03125 1.03125 -1.359375q0.484375 -0.328125 1.0625 -0.328125q0.828125 0 1.6875 0.53125l-0.5625 1.515625q-0.609375 -0.359375 -1.203125 -0.359375q-0.546875 0 -0.96875 0.328125q-0.421875 0.328125 -0.609375 0.890625q-0.28125 0.875 -0.28125 1.921875l0 5.0625l-1.625 0zm6.228302 0l0 -13.359375l1.640625 0l0 7.625l3.890625 -3.9375l2.109375 0l-3.6875 3.59375l4.0625 6.078125l-2.015625 0l-3.203125 -4.953125l-1.15625 1.125l0 3.828125l-1.640625 0zm15.953125 -3.109375l1.6875 0.203125q-0.40625 1.484375 -1.484375 2.3125q-1.078125 0.8125 -2.765625 0.8125q-2.125 0 -3.375 -1.296875q-1.234375 -1.3125 -1.234375 -3.671875q0 -2.453125 1.25 -3.796875q1.265625 -1.34375 3.265625 -1.34375q1.9375 0 3.15625 1.328125q1.234375 1.3125 1.234375 3.703125q0 0.15625 0 0.4375l-7.21875 0q0.09375 1.59375 0.90625 2.453125q0.8125 0.84375 2.015625 0.84375q0.90625 0 1.546875 -0.46875q0.640625 -0.484375 1.015625 -1.515625zm-5.390625 -2.65625l5.40625 0q-0.109375 -1.21875 -0.625 -1.828125q-0.78125 -0.953125 -2.03125 -0.953125q-1.125 0 -1.90625 0.765625q-0.765625 0.75 -0.84375 2.015625zm9.125702 5.765625l0 -9.671875l1.46875 0l0 1.46875q0.5625 -1.03125 1.03125 -1.359375q0.484375 -0.328125 1.0625 -0.328125q0.828125 0 1.6875 0.53125l-0.5625 1.515625q-0.609375 -0.359375 -1.203125 -0.359375q-0.546875 0 -0.96875 0.328125q-0.421875 0.328125 -0.609375 0.890625q-0.28125 0.875 -0.28125 1.921875l0 5.0625l-1.625 0z" fill-rule="nonzero"/><path fill="#ff9900" d="m261.7616 420.0l69.1181 -68.0l69.11813 68.0l-69.11813 68.0z" fill-rule="evenodd"/><path stroke="#000000" stroke-width="1.0" stroke-linejoin="round" stroke-linecap="butt" d="m261.7616 420.0l69.1181 -68.0l69.11813 68.0l-69.11813 68.0z" fill-rule="evenodd"/><path fill="#ff9900" d="m653.7744 366.16568l153.13 -153.84999l153.13 153.84999l-153.13 153.85z" fill-rule="evenodd"/><path stroke="#000000" stroke-width="1.0" stroke-linejoin="round" stroke-linecap="butt" d="m653.7744 366.16568l153.13 -153.84999l153.13 153.84999l-153.13 153.85z" fill-rule="evenodd"/><path fill="#000000" fill-opacity="0.0" d="m682.9921 278.83466l245.00787 0l0 89.165344l-245.00787 0z" fill-rule="evenodd"/><path fill="#000000" d="m730.50793 305.75464l-2.75 0l2.328125 -11.125l-3.921875 0l0.46875 -2.234375l10.53125 0l-0.46875 2.234375l-3.859375 0l-2.328125 11.125zm14.297058 -4.03125l-6.5625 0q-0.015625 0.15625 -0.015625 0.234375q0 0.96875 0.546875 1.5625q0.5625 0.59375 1.359375 0.59375q1.296875 0 2.03125 -1.34375l2.328125 0.390625q-0.671875 1.40625 -1.828125 2.125q-1.140625 0.703125 -2.5625 0.703125q-1.9375 0 -3.171875 -1.234375q-1.21875 -1.234375 -1.21875 -3.265625q0 -2.0 1.109375 -3.546875q1.5 -2.09375 4.296875 -2.09375q1.765625 0 2.8125 1.109375q1.046875 1.09375 1.046875 3.0625q0 0.953125 -0.171875 1.703125zm-2.203125 -1.59375q0 -0.171875 0 -0.265625q0 -1.0625 -0.484375 -1.59375q-0.484375 -0.546875 -1.296875 -0.546875q-0.796875 0 -1.453125 0.609375q-0.640625 0.609375 -0.859375 1.796875l4.09375 0zm5.2194214 -4.046875l2.46875 0l-0.25 1.25q0.921875 -0.796875 1.71875 -1.140625q0.8125 -0.34375 1.71875 -0.34375q1.1875 0 1.875 0.6875q0.6875 0.6875 0.6875 1.8125q0 0.515625 -0.296875 1.9375l-1.140625 5.46875l-2.609375 0l1.140625 -5.5q0.25 -1.21875 0.25 -1.453125q0 -0.5 -0.296875 -0.78125q-0.296875 -0.296875 -0.8125 -0.296875q-0.578125 0 -1.28125 0.484375q-0.703125 0.484375 -1.109375 1.265625q-0.28125 0.5625 -0.640625 2.3125l-0.84375 3.96875l-2.609375 0l2.03125 -9.671875zm13.020996 2.734375l-2.546875 -0.21875q0.4375 -1.28125 1.515625 -2.015625q1.09375 -0.734375 2.890625 -0.734375q1.859375 0 2.75 0.75q0.90625 0.75 0.90625 1.84375q0 0.4375 -0.078125 0.9375q-0.078125 0.484375 -0.546875 2.578125q-0.375 1.734375 -0.375 2.421875q0 0.625 0.21875 1.375l-2.546875 0q-0.15625 -0.53125 -0.1875 -1.09375q-0.578125 0.640625 -1.328125 0.984375q-0.75 0.34375 -1.5 0.34375q-1.203125 0 -1.984375 -0.78125q-0.78125 -0.796875 -0.78125 -2.046875q0 -1.375 0.859375 -2.203125q0.859375 -0.828125 3.0625 -1.0q1.875 -0.15625 2.5 -0.375q0.171875 -0.546875 0.171875 -0.875q0 -0.421875 -0.34375 -0.703125q-0.328125 -0.28125 -1.0 -0.28125q-0.703125 0 -1.109375 0.296875q-0.40625 0.28125 -0.546875 0.796875zm2.484375 2.421875q-0.234375 0.0625 -0.625 0.125q-1.96875 0.234375 -2.578125 0.6875q-0.421875 0.328125 -0.421875 0.890625q0 0.453125 0.328125 0.765625q0.328125 0.3125 0.859375 0.3125q0.59375 0 1.109375 -0.28125q0.53125 -0.296875 0.796875 -0.734375q0.265625 -0.453125 0.453125 -1.40625l0.078125 -0.359375zm6.2663574 -5.15625l2.46875 0l-0.25 1.25q0.921875 -0.796875 1.71875 -1.140625q0.8125 -0.34375 1.71875 -0.34375q1.1875 0 1.875 0.6875q0.6875 0.6875 0.6875 1.8125q0 0.515625 -0.296875 1.9375l-1.140625 5.46875l-2.609375 0l1.140625 -5.5q0.25 -1.21875 0.25 -1.453125q0 -0.5 -0.296875 -0.78125q-0.296875 -0.296875 -0.8125 -0.296875q-0.578125 0 -1.28125 0.484375q-0.703125 0.484375 -1.109375 1.265625q-0.28125 0.5625 -0.640625 2.3125l-0.84375 3.96875l-2.609375 0l2.03125 -9.671875zm9.989746 1.9375l0.390625 -1.9375l1.28125 0l0.3125 -1.546875l3.0 -1.8125l-0.703125 3.359375l1.59375 0l-0.390625 1.9375l-1.609375 0l-0.84375 4.046875q-0.234375 1.109375 -0.234375 1.265625q0 0.296875 0.1875 0.46875q0.203125 0.171875 0.703125 0.171875q0.171875 0 0.859375 -0.0625l-0.40625 1.9375q-0.671875 0.140625 -1.390625 0.140625q-1.375 0 -2.015625 -0.53125q-0.625 -0.546875 -0.625 -1.484375q0 -0.453125 0.34375 -2.0625l0.8125 -3.890625l-1.265625 0z" fill-rule="nonzero"/><path fill="#000000" d="m790.2756 305.75464l2.796875 -13.359375l2.609375 0l-1.453125 6.953125l3.40625 -3.265625l3.390625 0l-3.890625 3.515625l2.078125 6.15625l-2.625 0l-1.328125 -4.46875l-1.765625 1.5625l-0.609375 2.90625l-2.609375 0zm13.688232 -7.34375q-0.703125 -0.46875 -1.0625 -1.078125q-0.34375 -0.609375 -0.34375 -1.34375q0 -0.859375 0.484375 -1.734375q0.5 -0.890625 1.46875 -1.390625q0.984375 -0.515625 2.21875 -0.515625q1.796875 0 2.796875 0.9375q1.0 0.921875 1.0 2.34375q0 1.0 -0.5625 1.75q-0.5625 0.734375 -1.703125 1.21875q0.828125 0.5 1.234375 1.21875q0.40625 0.71875 0.40625 1.640625q0 1.515625 -0.96875 2.75q-1.40625 1.78125 -3.84375 1.78125q-1.765625 0 -2.84375 -1.03125q-1.0625 -1.046875 -1.0625 -2.671875q0 -1.328125 0.734375 -2.390625q0.75 -1.0625 2.046875 -1.484375zm0.984375 -2.25q0 0.625 0.375 1.015625q0.390625 0.390625 1.0 0.390625q0.703125 0 1.234375 -0.53125q0.53125 -0.53125 0.53125 -1.25q0 -0.640625 -0.390625 -1.046875q-0.390625 -0.40625 -1.0 -0.40625q-0.71875 0 -1.234375 0.53125q-0.515625 0.53125 -0.515625 1.296875zm-1.171875 6.171875q0 0.75 0.40625 1.1875q0.421875 0.421875 1.078125 0.421875q1.015625 0 1.5625 -0.890625q0.546875 -0.890625 0.546875 -1.9375q0 -0.671875 -0.421875 -1.109375q-0.421875 -0.4375 -1.078125 -0.4375q-0.828125 0 -1.46875 0.765625q-0.625 0.75 -0.625 2.0zm6.9538574 0.71875l2.53125 -0.40625q0.34375 0.796875 0.84375 1.140625q0.5 0.328125 1.359375 0.328125q0.90625 0 1.4375 -0.40625q0.375 -0.265625 0.375 -0.65625q0 -0.265625 -0.1875 -0.46875q-0.203125 -0.203125 -1.09375 -0.5q-2.359375 -0.78125 -2.9375 -1.234375q-0.875 -0.71875 -0.875 -1.859375q0 -1.15625 0.859375 -1.984375q1.1875 -1.15625 3.546875 -1.15625q1.859375 0 2.8125 0.6875q0.953125 0.6875 1.21875 1.84375l-2.421875 0.421875q-0.1875 -0.53125 -0.609375 -0.796875q-0.59375 -0.34375 -1.40625 -0.34375q-0.828125 0 -1.1875 0.28125q-0.359375 0.265625 -0.359375 0.609375q0 0.375 0.375 0.609375q0.21875 0.140625 1.46875 0.515625q1.90625 0.546875 2.546875 1.09375q0.921875 0.75 0.921875 1.8125q0 1.375 -1.15625 2.390625q-1.15625 1.015625 -3.265625 1.015625q-2.09375 0 -3.25 -0.765625q-1.140625 -0.78125 -1.546875 -2.171875z" fill-rule="nonzero"/><path fill="#000000" d="m833.19543 302.114l2.53125 0.40625q-0.625 1.6875 -1.859375 2.578125q-1.21875 0.890625 -2.84375 0.890625q-1.859375 0 -2.9375 -1.109375q-1.078125 -1.109375 -1.078125 -3.03125q0 -1.578125 0.65625 -2.984375q0.65625 -1.40625 1.96875 -2.203125q1.328125 -0.8125 2.90625 -0.8125q1.703125 0 2.71875 0.90625q1.03125 0.890625 1.15625 2.34375l-2.484375 0.265625q-0.09375 -0.8125 -0.5 -1.1875q-0.40625 -0.390625 -1.0625 -0.390625q-0.75 0 -1.40625 0.5625q-0.65625 0.5625 -1.015625 1.6875q-0.34375 1.125 -0.34375 2.109375q0 0.859375 0.421875 1.328125q0.421875 0.453125 1.046875 0.453125q0.625 0 1.203125 -0.453125q0.59375 -0.453125 0.921875 -1.359375zm3.7976074 3.640625l2.796875 -13.359375l2.59375 0l-2.78125 13.359375l-2.609375 0zm7.1989136 -9.671875l2.609375 0l-1.1875 5.734375q-0.21875 1.015625 -0.21875 1.28125q0 0.421875 0.3125 0.71875q0.3125 0.296875 0.796875 0.296875q0.34375 0 0.671875 -0.125q0.34375 -0.140625 0.6875 -0.40625q0.359375 -0.265625 0.640625 -0.609375q0.28125 -0.359375 0.53125 -0.921875q0.171875 -0.421875 0.375 -1.359375l0.96875 -4.609375l2.609375 0l-2.015625 9.671875l-2.4375 0l0.265625 -1.3125q-1.609375 1.546875 -3.484375 1.546875q-1.203125 0 -1.890625 -0.6875q-0.671875 -0.6875 -0.671875 -1.828125q0 -0.5 0.3125 -2.0l1.125 -5.390625zm9.052246 6.96875l2.53125 -0.40625q0.34375 0.796875 0.84375 1.140625q0.5 0.328125 1.359375 0.328125q0.90625 0 1.4375 -0.40625q0.375 -0.265625 0.375 -0.65625q0 -0.265625 -0.1875 -0.46875q-0.203125 -0.203125 -1.09375 -0.5q-2.359375 -0.78125 -2.9375 -1.234375q-0.875 -0.71875 -0.875 -1.859375q0 -1.15625 0.859375 -1.984375q1.1875 -1.15625 3.546875 -1.15625q1.859375 0 2.8125 0.6875q0.953125 0.6875 1.21875 1.84375l-2.421875 0.421875q-0.1875 -0.53125 -0.609375 -0.796875q-0.59375 -0.34375 -1.40625 -0.34375q-0.828125 0 -1.1875 0.28125q-0.359375 0.265625 -0.359375 0.609375q0 0.375 0.375 0.609375q0.21875 0.140625 1.46875 0.515625q1.90625 0.546875 2.546875 1.09375q0.921875 0.75 0.921875 1.8125q0 1.375 -1.15625 2.390625q-1.15625 1.015625 -3.265625 1.015625q-2.09375 0 -3.25 -0.765625q-1.140625 -0.78125 -1.546875 -2.171875zm11.375671 -5.03125l0.390625 -1.9375l1.28125 0l0.3125 -1.546875l3.0 -1.8125l-0.703125 3.359375l1.59375 0l-0.390625 1.9375l-1.609375 0l-0.84375 4.046875q-0.234375 1.109375 -0.234375 1.265625q0 0.296875 0.1875 0.46875q0.203125 0.171875 0.703125 0.171875q0.171875 0 0.859375 -0.0625l-0.40625 1.9375q-0.671875 0.140625 -1.390625 0.140625q-1.375 0 -2.015625 -0.53125q-0.625 -0.546875 -0.625 -1.484375q0 -0.453125 0.34375 -2.0625l0.8125 -3.890625l-1.265625 0zm14.9783325 3.703125l-6.5625 0q-0.015625 0.15625 -0.015625 0.234375q0 0.96875 0.546875 1.5625q0.5625 0.59375 1.359375 0.59375q1.296875 0 2.03125 -1.34375l2.328125 0.390625q-0.671875 1.40625 -1.828125 2.125q-1.140625 0.703125 -2.5625 0.703125q-1.9375 0 -3.171875 -1.234375q-1.21875 -1.234375 -1.21875 -3.265625q0 -2.0 1.109375 -3.546875q1.5 -2.09375 4.296875 -2.09375q1.765625 0 2.8125 1.109375q1.046875 1.09375 1.046875 3.0625q0 0.953125 -0.171875 1.703125zm-2.203125 -1.59375q0 -0.171875 0 -0.265625q0 -1.0625 -0.484375 -1.59375q-0.484375 -0.546875 -1.296875 -0.546875q-0.796875 0 -1.453125 0.609375q-0.640625 0.609375 -0.859375 1.796875l4.09375 0zm5.0319824 -4.046875l2.4375 0l-0.390625 1.875q1.375 -2.109375 2.96875 -2.109375q0.5625 0 1.203125 0.28125l-1.0 2.140625q-0.359375 -0.125 -0.75 -0.125q-0.6875 0 -1.390625 0.515625q-0.6875 0.5 -1.078125 1.359375q-0.390625 0.859375 -0.765625 2.703125l-0.640625 3.03125l-2.625 0l2.03125 -9.671875z" fill-rule="nonzero"/><path fill="#000000" d="m780.52277 327.75464l-2.96875 -9.671875l1.703125 0l1.53125 5.578125l0.578125 2.078125q0.046875 -0.15625 0.5 -2.0l1.546875 -5.65625l1.6875 0l1.4375 5.609375l0.484375 1.84375l0.5625 -1.859375l1.65625 -5.59375l1.59375 0l-3.03125 9.671875l-1.703125 0l-1.53125 -5.796875l-0.375 -1.640625l-1.953125 7.4375l-1.71875 0zm11.082336 -4.84375q0 -2.6875 1.484375 -3.96875q1.25 -1.078125 3.046875 -1.078125q2.0 0 3.265625 1.3125q1.265625 1.296875 1.265625 3.609375q0 1.859375 -0.5625 2.9375q-0.5625 1.0625 -1.640625 1.65625q-1.0625 0.59375 -2.328125 0.59375q-2.03125 0 -3.28125 -1.296875q-1.25 -1.3125 -1.25 -3.765625zm1.6875 0q0 1.859375 0.796875 2.796875q0.8125 0.921875 2.046875 0.921875q1.21875 0 2.03125 -0.921875q0.8125 -0.9375 0.8125 -2.84375q0 -1.796875 -0.8125 -2.71875q-0.8125 -0.921875 -2.03125 -0.921875q-1.234375 0 -2.046875 0.921875q-0.796875 0.90625 -0.796875 2.765625zm9.281921 4.84375l0 -9.671875l1.46875 0l0 1.46875q0.5625 -1.03125 1.03125 -1.359375q0.484375 -0.328125 1.0625 -0.328125q0.828125 0 1.6875 0.53125l-0.5625 1.515625q-0.609375 -0.359375 -1.203125 -0.359375q-0.546875 0 -0.96875 0.328125q-0.421875 0.328125 -0.609375 0.890625q-0.28125 0.875 -0.28125 1.921875l0 5.0625l-1.625 0zm6.2283325 0l0 -13.359375l1.640625 0l0 7.625l3.890625 -3.9375l2.109375 0l-3.6875 3.59375l4.0625 6.078125l-2.015625 0l-3.203125 -4.953125l-1.15625 1.125l0 3.828125l-1.640625 0zm15.953125 -3.109375l1.6875 0.203125q-0.40625 1.484375 -1.484375 2.3125q-1.078125 0.8125 -2.765625 0.8125q-2.125 0 -3.375 -1.296875q-1.234375 -1.3125 -1.234375 -3.671875q0 -2.453125 1.25 -3.796875q1.265625 -1.34375 3.265625 -1.34375q1.9375 0 3.15625 1.328125q1.234375 1.3125 1.234375 3.703125q0 0.15625 0 0.4375l-7.21875 0q0.09375 1.59375 0.90625 2.453125q0.8125 0.84375 2.015625 0.84375q0.90625 0 1.546875 -0.46875q0.640625 -0.484375 1.015625 -1.515625zm-5.390625 -2.65625l5.40625 0q-0.109375 -1.21875 -0.625 -1.828125q-0.78125 -0.953125 -2.03125 -0.953125q-1.125 0 -1.90625 0.765625q-0.765625 0.75 -0.84375 2.015625zm9.125671 5.765625l0 -9.671875l1.46875 0l0 1.46875q0.5625 -1.03125 1.03125 -1.359375q0.484375 -0.328125 1.0625 -0.328125q0.828125 0 1.6875 0.53125l-0.5625 1.515625q-0.609375 -0.359375 -1.203125 -0.359375q-0.546875 0 -0.96875 0.328125q-0.421875 0.328125 -0.609375 0.890625q-0.28125 0.875 -0.28125 1.921875l0 5.0625l-1.625 0z" fill-rule="nonzero"/><path fill="#000000" fill-opacity="0.0" d="m330.8797 352.0l476.0315 -139.68504" fill-rule="evenodd"/><path stroke="#000000" stroke-width="1.0" stroke-linejoin="round" stroke-linecap="butt" d="m330.8797 352.0l476.0315 -139.68504" fill-rule="evenodd"/><path fill="#000000" fill-opacity="0.0" d="m330.8797 488.0l476.0315 32.0" fill-rule="evenodd"/><path stroke="#000000" stroke-width="1.0" stroke-linejoin="round" stroke-linecap="butt" d="m330.8797 488.0l476.0315 32.0" fill-rule="evenodd"/><path fill="#cfe2f3" d="m792.0 436.0l0 0c0 2.209137 8.954285 4.0 20.0 4.0c11.045715 0 20.0 -1.790863 20.0 -4.0l0 24.0c0 2.209137 -8.954285 4.0 -20.0 4.0c-11.045715 0 -20.0 -1.790863 -20.0 -4.0z" fill-rule="evenodd"/><path fill="#e2edf7" d="m792.0 436.0l0 0c0 -2.209137 8.954285 -4.0 20.0 -4.0c11.045715 0 20.0 1.790863 20.0 4.0l0 0c0 2.209137 -8.954285 4.0 -20.0 4.0c-11.045715 0 -20.0 -1.790863 -20.0 -4.0z" fill-rule="evenodd"/><path fill="#000000" fill-opacity="0.0" d="m832.0 436.0l0 0c0 2.209137 -8.954285 4.0 -20.0 4.0c-11.045715 0 -20.0 -1.790863 -20.0 -4.0l0 0c0 -2.209137 8.954285 -4.0 20.0 -4.0c11.045715 0 20.0 1.790863 20.0 4.0l0 24.0c0 2.209137 -8.954285 4.0 -20.0 4.0c-11.045715 0 -20.0 -1.790863 -20.0 -4.0l0 -24.0" fill-rule="evenodd"/><path stroke="#000000" stroke-width="1.0" stroke-linejoin="round" stroke-linecap="butt" d="m832.0 436.0l0 0c0 2.209137 -8.954285 4.0 -20.0 4.0c-11.045715 0 -20.0 -1.790863 -20.0 -4.0l0 0c0 -2.209137 8.954285 -4.0 20.0 -4.0c11.045715 0 20.0 1.790863 20.0 4.0l0 24.0c0 2.209137 -8.954285 4.0 -20.0 4.0c-11.045715 0 -20.0 -1.790863 -20.0 -4.0l0 -24.0" fill-rule="evenodd"/><path fill="#000000" d="m802.03125 454.8l0 -9.546875l3.59375 0q0.953125 0 1.453125 0.09375q0.703125 0.125 1.171875 0.453125q0.484375 0.328125 0.765625 0.921875q0.296875 0.59375 0.296875 1.296875q0 1.21875 -0.78125 2.0625q-0.765625 0.84375 -2.796875 0.84375l-2.4375 0l0 3.875l-1.265625 0zm1.265625 -5.0l2.453125 0q1.234375 0 1.75 -0.453125q0.515625 -0.46875 0.515625 -1.28125q0 -0.609375 -0.3125 -1.03125q-0.296875 -0.421875 -0.796875 -0.5625q-0.3125 -0.09375 -1.171875 -0.09375l-2.4375 0l0 3.421875zm10.3428955 5.0l-3.6875 -9.546875l1.359375 0l2.484375 6.9375q0.296875 0.828125 0.5 1.5625q0.21875 -0.78125 0.515625 -1.5625l2.578125 -6.9375l1.28125 0l-3.734375 9.546875l-1.296875 0z" fill-rule="nonzero"/><path fill="#6d9eeb" d="m848.00006 365.39005l39.99994 -21.390045l39.99994 21.390045l-15.2786255 34.609802l-49.442627 0z" fill-rule="evenodd"/><path stroke="#000000" stroke-width="1.0" stroke-linejoin="round" stroke-linecap="butt" d="m848.00006 365.39005l39.99994 -21.390045l39.99994 21.390045l-15.2786255 34.609802l-49.442627 0z" fill-rule="evenodd"/><path fill="#000000" d="m878.5443 373.17795l1.015625 0.25q-0.328125 1.25 -1.15625 1.90625q-0.8125 0.640625 -2.015625 0.640625q-1.234375 0 -2.0 -0.5q-0.765625 -0.5 -1.171875 -1.453125q-0.40625 -0.953125 -0.40625 -2.046875q0 -1.1875 0.453125 -2.078125q0.453125 -0.890625 1.296875 -1.34375q0.84375 -0.46875 1.84375 -0.46875q1.15625 0 1.9375 0.59375q0.78125 0.578125 1.078125 1.640625l-0.984375 0.234375q-0.265625 -0.84375 -0.78125 -1.21875q-0.5 -0.375 -1.265625 -0.375q-0.875 0 -1.46875 0.421875q-0.59375 0.421875 -0.828125 1.140625q-0.234375 0.703125 -0.234375 1.453125q0 0.96875 0.28125 1.703125q0.28125 0.71875 0.875 1.078125q0.59375 0.359375 1.296875 0.359375q0.84375 0 1.4375 -0.484375q0.59375 -0.5 0.796875 -1.453125zm1.9143677 0.21875l0.953125 -0.078125q0.0625 0.5625 0.3125 0.9375q0.25 0.359375 0.765625 0.59375q0.515625 0.21875 1.171875 0.21875q0.578125 0 1.015625 -0.171875q0.4375 -0.171875 0.65625 -0.46875q0.21875 -0.296875 0.21875 -0.65625q0 -0.359375 -0.21875 -0.625q-0.203125 -0.265625 -0.671875 -0.4375q-0.3125 -0.125 -1.359375 -0.375q-1.046875 -0.25 -1.46875 -0.484375q-0.546875 -0.28125 -0.828125 -0.703125q-0.265625 -0.421875 -0.265625 -0.953125q0 -0.578125 0.328125 -1.078125q0.328125 -0.5 0.953125 -0.765625q0.640625 -0.265625 1.40625 -0.265625q0.84375 0 1.484375 0.28125q0.65625 0.265625 1.0 0.796875q0.359375 0.53125 0.390625 1.203125l-0.96875 0.078125q-0.078125 -0.71875 -0.53125 -1.09375q-0.453125 -0.375 -1.328125 -0.375q-0.921875 0 -1.34375 0.34375q-0.40625 0.328125 -0.40625 0.8125q0 0.40625 0.296875 0.671875q0.28125 0.265625 1.515625 0.546875q1.234375 0.28125 1.6875 0.484375q0.671875 0.3125 0.984375 0.78125q0.3125 0.46875 0.3125 1.078125q0 0.609375 -0.34375 1.15625q-0.34375 0.53125 -1.0 0.828125q-0.65625 0.296875 -1.46875 0.296875q-1.046875 0 -1.75 -0.296875q-0.6875 -0.296875 -1.09375 -0.90625q-0.390625 -0.609375 -0.40625 -1.375zm7.62323 2.453125l0 -7.625l1.0 0l0 7.625l-1.0 0z" fill-rule="nonzero"/><path fill="#000000" d="m876.55994 388.84982l0 -0.703125q-0.515625 0.828125 -1.546875 0.828125q-0.65625 0 -1.21875 -0.359375q-0.546875 -0.375 -0.859375 -1.015625q-0.296875 -0.65625 -0.296875 -1.5q0 -0.828125 0.28125 -1.5q0.28125 -0.6875 0.828125 -1.046875q0.546875 -0.359375 1.234375 -0.359375q0.5 0 0.890625 0.21875q0.390625 0.203125 0.625 0.546875l0 -2.734375l0.9375 0l0 7.625l-0.875 0zm-2.953125 -2.75q0 1.046875 0.4375 1.578125q0.453125 0.53125 1.0625 0.53125q0.609375 0 1.03125 -0.5q0.4375 -0.515625 0.4375 -1.53125q0 -1.140625 -0.4375 -1.671875q-0.4375 -0.53125 -1.078125 -0.53125q-0.609375 0 -1.03125 0.515625q-0.421875 0.5 -0.421875 1.609375zm5.2858887 2.75l0 -5.53125l0.84375 0l0 0.84375q0.328125 -0.59375 0.59375 -0.78125q0.28125 -0.1875 0.609375 -0.1875q0.46875 0 0.953125 0.3125l-0.3125 0.859375q-0.34375 -0.203125 -0.6875 -0.203125q-0.3125 0 -0.5625 0.1875q-0.234375 0.1875 -0.34375 0.515625q-0.15625 0.5 -0.15625 1.09375l0 2.890625l-0.9375 0zm3.564209 -6.546875l0 -1.078125l0.9375 0l0 1.078125l-0.9375 0zm0 6.546875l0 -5.53125l0.9375 0l0 5.53125l-0.9375 0zm3.8987427 0l-2.09375 -5.53125l0.984375 0l1.1875 3.3125q0.1875 0.53125 0.359375 1.109375q0.109375 -0.4375 0.34375 -1.046875l1.21875 -3.375l0.96875 0l-2.09375 5.53125l-0.875 0zm7.578125 -1.78125l0.96875 0.125q-0.234375 0.84375 -0.859375 1.3125q-0.609375 0.46875 -1.578125 0.46875q-1.203125 0 -1.921875 -0.75q-0.703125 -0.75 -0.703125 -2.09375q0 -1.390625 0.71875 -2.15625q0.71875 -0.78125 1.859375 -0.78125q1.109375 0 1.8125 0.765625q0.703125 0.75 0.703125 2.125q0 0.078125 0 0.234375l-4.125 0q0.046875 0.921875 0.515625 1.40625q0.46875 0.484375 1.15625 0.484375q0.515625 0 0.875 -0.265625q0.359375 -0.28125 0.578125 -0.875zm-3.078125 -1.515625l3.09375 0q-0.0625 -0.6875 -0.359375 -1.046875q-0.453125 -0.53125 -1.15625 -0.53125q-0.640625 0 -1.09375 0.4375q-0.4375 0.421875 -0.484375 1.140625zm5.2077637 3.296875l0 -5.53125l0.84375 0l0 0.84375q0.328125 -0.59375 0.59375 -0.78125q0.28125 -0.1875 0.609375 -0.1875q0.46875 0 0.953125 0.3125l-0.3125 0.859375q-0.34375 -0.203125 -0.6875 -0.203125q-0.3125 0 -0.5625 0.1875q-0.234375 0.1875 -0.34375 0.515625q-0.15625 0.5 -0.15625 1.09375l0 2.890625l-0.9375 0z" fill-rule="nonzero"/><path fill="#cfe2f3" d="m304.0 436.0l0 0c0 2.209137 10.745178 4.0 24.0 4.0c13.254822 0 24.0 -1.790863 24.0 -4.0l0 24.0c0 2.209137 -10.745178 4.0 -24.0 4.0c-13.254822 0 -24.0 -1.790863 -24.0 -4.0z" fill-rule="evenodd"/><path fill="#e2edf7" d="m304.0 436.0l0 0c0 -2.209137 10.745178 -4.0 24.0 -4.0c13.254822 0 24.0 1.790863 24.0 4.0l0 0c0 2.209137 -10.745178 4.0 -24.0 4.0c-13.254822 0 -24.0 -1.790863 -24.0 -4.0z" fill-rule="evenodd"/><path fill="#000000" fill-opacity="0.0" d="m352.0 436.0l0 0c0 2.209137 -10.745178 4.0 -24.0 4.0c-13.254822 0 -24.0 -1.790863 -24.0 -4.0l0 0c0 -2.209137 10.745178 -4.0 24.0 -4.0c13.254822 0 24.0 1.790863 24.0 4.0l0 24.0c0 2.209137 -10.745178 4.0 -24.0 4.0c-13.254822 0 -24.0 -1.790863 -24.0 -4.0l0 -24.0" fill-rule="evenodd"/><path stroke="#000000" stroke-width="1.0" stroke-linejoin="round" stroke-linecap="butt" d="m352.0 436.0l0 0c0 2.209137 -10.745178 4.0 -24.0 4.0c-13.254822 0 -24.0 -1.790863 -24.0 -4.0l0 0c0 -2.209137 10.745178 -4.0 24.0 -4.0c13.254822 0 24.0 1.790863 24.0 4.0l0 24.0c0 2.209137 -10.745178 4.0 -24.0 4.0c-13.254822 0 -24.0 -1.790863 -24.0 -4.0l0 -24.0" fill-rule="evenodd"/><path fill="#000000" d="m318.35938 454.8l0 -0.875q-0.65625 1.03125 -1.9375 1.03125q-0.8125 0 -1.515625 -0.453125q-0.6875 -0.453125 -1.078125 -1.265625q-0.375 -0.828125 -0.375 -1.890625q0 -1.03125 0.34375 -1.875q0.34375 -0.84375 1.03125 -1.28125q0.703125 -0.453125 1.546875 -0.453125q0.625 0 1.109375 0.265625q0.5 0.25 0.796875 0.671875l0 -3.421875l1.171875 0l0 9.546875l-1.09375 0zm-3.703125 -3.453125q0 1.328125 0.5625 1.984375q0.5625 0.65625 1.328125 0.65625q0.765625 0 1.296875 -0.625q0.53125 -0.625 0.53125 -1.90625q0 -1.421875 -0.546875 -2.078125q-0.546875 -0.671875 -1.34375 -0.671875q-0.78125 0 -1.3125 0.640625q-0.515625 0.625 -0.515625 2.0zm6.6468506 -4.734375l0 -1.359375l1.171875 0l0 1.359375l-1.171875 0zm0 8.1875l0 -6.90625l1.171875 0l0 6.90625l-1.171875 0zm2.476715 -2.0625l1.15625 -0.1875q0.109375 0.703125 0.546875 1.078125q0.453125 0.359375 1.25 0.359375q0.8125 0 1.203125 -0.328125q0.390625 -0.328125 0.390625 -0.765625q0 -0.390625 -0.359375 -0.625q-0.234375 -0.15625 -1.1875 -0.390625q-1.296875 -0.328125 -1.796875 -0.5625q-0.484375 -0.25 -0.75 -0.65625q-0.25 -0.421875 -0.25 -0.9375q0 -0.453125 0.203125 -0.84375q0.21875 -0.40625 0.578125 -0.671875q0.28125 -0.1875 0.75 -0.328125q0.46875 -0.140625 1.015625 -0.140625q0.8125 0 1.421875 0.234375q0.609375 0.234375 0.90625 0.640625q0.296875 0.390625 0.40625 1.0625l-1.140625 0.15625q-0.078125 -0.53125 -0.453125 -0.828125q-0.375 -0.3125 -1.0625 -0.3125q-0.8125 0 -1.15625 0.265625q-0.34375 0.265625 -0.34375 0.625q0 0.234375 0.140625 0.421875q0.15625 0.1875 0.453125 0.3125q0.171875 0.0625 1.03125 0.296875q1.25 0.328125 1.734375 0.546875q0.5 0.203125 0.78125 0.609375q0.28125 0.40625 0.28125 1.0q0 0.59375 -0.34375 1.109375q-0.34375 0.515625 -1.0 0.796875q-0.640625 0.28125 -1.453125 0.28125q-1.34375 0 -2.046875 -0.5625q-0.703125 -0.5625 -0.90625 -1.65625zm7.1484375 2.0625l0 -9.546875l1.171875 0l0 5.453125l2.765625 -2.8125l1.515625 0l-2.640625 2.5625l2.90625 4.34375l-1.4375 0l-2.28125 -3.53125l-0.828125 0.796875l0 2.734375l-1.171875 0z" fill-rule="nonzero"/><path fill="#efefef" d="m360.0 448.0l24.0 -24.0l0 12.0l376.0 0l0 -12.0l24.0 24.0l-24.0 24.0l0 -12.0l-376.0 0l0 12.0z" fill-rule="evenodd"/><path stroke="#000000" stroke-width="1.0" stroke-linejoin="round" stroke-linecap="butt" d="m360.0 448.0l24.0 -24.0l0 12.0l376.0 0l0 -12.0l24.0 24.0l-24.0 24.0l0 -12.0l-376.0 0l0 12.0z" fill-rule="evenodd"/><path fill="#000000" d="m455.40622 454.91998l-5.171875 -13.359375l1.921875 0l3.46875 9.703125q0.421875 1.171875 0.703125 2.1875q0.3125 -1.09375 0.71875 -2.1875l3.609375 -9.703125l1.796875 0l-5.234375 13.359375l-1.8125 0zm6.7886047 -4.84375q0 -2.6875 1.484375 -3.96875q1.25 -1.078125 3.046875 -1.078125q2.0 0 3.265625 1.3125q1.265625 1.296875 1.265625 3.609375q0 1.859375 -0.5625 2.9375q-0.5625 1.0625 -1.640625 1.65625q-1.0625 0.59375 -2.328125 0.59375q-2.03125 0 -3.28125 -1.296875q-1.25 -1.3125 -1.25 -3.765625zm1.6875 0q0 1.859375 0.796875 2.796875q0.8125 0.921875 2.046875 0.921875q1.21875 0 2.03125 -0.921875q0.8125 -0.9375 0.8125 -2.84375q0 -1.796875 -0.8125 -2.71875q-0.8125 -0.921875 -2.03125 -0.921875q-1.234375 0 -2.046875 0.921875q-0.796875 0.90625 -0.796875 2.765625zm9.250732 4.84375l0 -13.359375l1.640625 0l0 13.359375l-1.640625 0zm10.519806 0l0 -1.421875q-1.125 1.640625 -3.0625 1.640625q-0.859375 0 -1.609375 -0.328125q-0.734375 -0.328125 -1.09375 -0.828125q-0.359375 -0.5 -0.5 -1.21875q-0.109375 -0.46875 -0.109375 -1.53125l0 -5.984375l1.640625 0l0 5.359375q0 1.28125 0.109375 1.734375q0.15625 0.640625 0.65625 1.015625q0.5 0.375 1.234375 0.375q0.734375 0 1.375 -0.375q0.65625 -0.390625 0.921875 -1.03125q0.265625 -0.65625 0.265625 -1.890625l0 -5.1875l1.640625 0l0 9.671875l-1.46875 0zm4.0476074 0l0 -9.671875l1.46875 0l0 1.359375q0.453125 -0.71875 1.203125 -1.140625q0.765625 -0.4375 1.71875 -0.4375q1.078125 0 1.765625 0.453125q0.6875 0.4375 0.96875 1.234375q1.15625 -1.6875 2.984375 -1.6875q1.453125 0 2.21875 0.796875q0.78125 0.796875 0.78125 2.453125l0 6.640625l-1.640625 0l0 -6.09375q0 -0.984375 -0.15625 -1.40625q-0.15625 -0.4375 -0.578125 -0.703125q-0.421875 -0.265625 -0.984375 -0.265625q-1.015625 0 -1.6875 0.6875q-0.671875 0.671875 -0.671875 2.15625l0 5.625l-1.640625 0l0 -6.28125q0 -1.09375 -0.40625 -1.640625q-0.40625 -0.546875 -1.3125 -0.546875q-0.6875 0 -1.28125 0.359375q-0.59375 0.359375 -0.859375 1.0625q-0.25 0.703125 -0.25 2.03125l0 5.015625l-1.640625 0zm22.165802 -3.109375l1.6875 0.203125q-0.40625 1.484375 -1.484375 2.3125q-1.078125 0.8125 -2.765625 0.8125q-2.125 0 -3.375 -1.296875q-1.234375 -1.3125 -1.234375 -3.671875q0 -2.453125 1.25 -3.796875q1.265625 -1.34375 3.265625 -1.34375q1.9375 0 3.15625 1.328125q1.234375 1.3125 1.234375 3.703125q0 0.15625 0 0.4375l-7.21875 0q0.09375 1.59375 0.90625 2.453125q0.8125 0.84375 2.015625 0.84375q0.90625 0 1.546875 -0.46875q0.640625 -0.484375 1.015625 -1.515625zm-5.390625 -2.65625l5.40625 0q-0.109375 -1.21875 -0.625 -1.828125q-0.78125 -0.953125 -2.03125 -0.953125q-1.125 0 -1.90625 0.765625q-0.765625 0.75 -0.84375 2.015625zm14.324646 5.765625l0 -9.671875l1.46875 0l0 1.359375q0.453125 -0.71875 1.203125 -1.140625q0.765625 -0.4375 1.71875 -0.4375q1.078125 0 1.765625 0.453125q0.6875 0.4375 0.96875 1.234375q1.15625 -1.6875 2.984375 -1.6875q1.453125 0 2.21875 0.796875q0.78125 0.796875 0.78125 2.453125l0 6.640625l-1.640625 0l0 -6.09375q0 -0.984375 -0.15625 -1.40625q-0.15625 -0.4375 -0.578125 -0.703125q-0.421875 -0.265625 -0.984375 -0.265625q-1.015625 0 -1.6875 0.6875q-0.671875 0.671875 -0.671875 2.15625l0 5.625l-1.640625 0l0 -6.28125q0 -1.09375 -0.40625 -1.640625q-0.40625 -0.546875 -1.3125 -0.546875q-0.6875 0 -1.28125 0.359375q-0.59375 0.359375 -0.859375 1.0625q-0.25 0.703125 -0.25 2.03125l0 5.015625l-1.640625 0zm14.9313965 -4.84375q0 -2.6875 1.484375 -3.96875q1.25 -1.078125 3.046875 -1.078125q2.0 0 3.265625 1.3125q1.265625 1.296875 1.265625 3.609375q0 1.859375 -0.5625 2.9375q-0.5625 1.0625 -1.640625 1.65625q-1.0625 0.59375 -2.328125 0.59375q-2.03125 0 -3.28125 -1.296875q-1.25 -1.3125 -1.25 -3.765625zm1.6875 0q0 1.859375 0.796875 2.796875q0.8125 0.921875 2.046875 0.921875q1.21875 0 2.03125 -0.921875q0.8125 -0.9375 0.8125 -2.84375q0 -1.796875 -0.8125 -2.71875q-0.8125 -0.921875 -2.03125 -0.921875q-1.234375 0 -2.046875 0.921875q-0.796875 0.90625 -0.796875 2.765625zm15.625732 4.84375l0 -1.421875q-1.125 1.640625 -3.0625 1.640625q-0.859375 0 -1.609375 -0.328125q-0.734375 -0.328125 -1.09375 -0.828125q-0.359375 -0.5 -0.5 -1.21875q-0.109375 -0.46875 -0.109375 -1.53125l0 -5.984375l1.640625 0l0 5.359375q0 1.28125 0.109375 1.734375q0.15625 0.640625 0.65625 1.015625q0.5 0.375 1.234375 0.375q0.734375 0 1.375 -0.375q0.65625 -0.390625 0.921875 -1.03125q0.265625 -0.65625 0.265625 -1.890625l0 -5.1875l1.640625 0l0 9.671875l-1.46875 0zm4.0476074 0l0 -9.671875l1.46875 0l0 1.375q1.0625 -1.59375 3.078125 -1.59375q0.875 0 1.609375 0.3125q0.734375 0.3125 1.09375 0.828125q0.375 0.5 0.515625 1.203125q0.09375 0.453125 0.09375 1.59375l0 5.953125l-1.640625 0l0 -5.890625q0 -1.0 -0.203125 -1.484375q-0.1875 -0.5 -0.671875 -0.796875q-0.484375 -0.296875 -1.140625 -0.296875q-1.046875 0 -1.8125 0.671875q-0.75 0.65625 -0.75 2.515625l0 5.28125l-1.640625 0zm13.953857 -1.46875l0.234375 1.453125q-0.6875 0.140625 -1.234375 0.140625q-0.890625 0 -1.390625 -0.28125q-0.484375 -0.28125 -0.6875 -0.734375q-0.203125 -0.46875 -0.203125 -1.9375l0 -5.578125l-1.203125 0l0 -1.265625l1.203125 0l0 -2.390625l1.625 -0.984375l0 3.375l1.65625 0l0 1.265625l-1.65625 0l0 5.671875q0 0.6875 0.078125 0.890625q0.09375 0.203125 0.28125 0.328125q0.203125 0.109375 0.578125 0.109375q0.265625 0 0.71875 -0.0625zm5.554077 1.703125l3.875 -13.8125l1.3125 0l-3.859375 13.8125l-1.328125 0zm12.68335 -0.234375l0 -1.21875q-0.90625 1.4375 -2.703125 1.4375q-1.15625 0 -2.125 -0.640625q-0.96875 -0.640625 -1.5 -1.78125q-0.53125 -1.140625 -0.53125 -2.625q0 -1.453125 0.484375 -2.625q0.484375 -1.1875 1.4375 -1.8125q0.96875 -0.625 2.171875 -0.625q0.875 0 1.546875 0.375q0.6875 0.359375 1.109375 0.953125l0 -4.796875l1.640625 0l0 13.359375l-1.53125 0zm-5.171875 -4.828125q0 1.859375 0.78125 2.78125q0.78125 0.921875 1.84375 0.921875q1.078125 0 1.828125 -0.875q0.75 -0.890625 0.75 -2.6875q0 -1.984375 -0.765625 -2.90625q-0.765625 -0.9375 -1.890625 -0.9375q-1.078125 0 -1.8125 0.890625q-0.734375 0.890625 -0.734375 2.8125zm15.906921 1.71875l1.6875 0.203125q-0.40625 1.484375 -1.484375 2.3125q-1.078125 0.8125 -2.765625 0.8125q-2.125 0 -3.375 -1.296875q-1.234375 -1.3125 -1.234375 -3.671875q0 -2.453125 1.25 -3.796875q1.265625 -1.34375 3.265625 -1.34375q1.9375 0 3.15625 1.328125q1.234375 1.3125 1.234375 3.703125q0 0.15625 0 0.4375l-7.21875 0q0.09375 1.59375 0.90625 2.453125q0.8125 0.84375 2.015625 0.84375q0.90625 0 1.546875 -0.46875q0.640625 -0.484375 1.015625 -1.515625zm-5.390625 -2.65625l5.40625 0q-0.109375 -1.21875 -0.625 -1.828125q-0.78125 -0.953125 -2.03125 -0.953125q-1.125 0 -1.90625 0.765625q-0.765625 0.75 -0.84375 2.015625zm11.828857 5.765625l-3.6875 -9.671875l1.734375 0l2.078125 5.796875q0.328125 0.9375 0.625 1.9375q0.203125 -0.765625 0.609375 -1.828125l2.140625 -5.90625l1.6875 0l-3.65625 9.671875l-1.53125 0zm5.40625 0.234375l3.875 -13.8125l1.3125 0l-3.859375 13.8125l-1.328125 0zm12.683289 -0.234375l0 -1.21875q-0.90625 1.4375 -2.703125 1.4375q-1.15625 0 -2.125 -0.640625q-0.96875 -0.640625 -1.5 -1.78125q-0.53125 -1.140625 -0.53125 -2.625q0 -1.453125 0.484375 -2.625q0.484375 -1.1875 1.4375 -1.8125q0.96875 -0.625 2.171875 -0.625q0.875 0 1.546875 0.375q0.6875 0.359375 1.109375 0.953125l0 -4.796875l1.640625 0l0 13.359375l-1.53125 0zm-5.171875 -4.828125q0 1.859375 0.78125 2.78125q0.78125 0.921875 1.84375 0.921875q1.078125 0 1.828125 -0.875q0.75 -0.890625 0.75 -2.6875q0 -1.984375 -0.765625 -2.90625q-0.765625 -0.9375 -1.890625 -0.9375q-1.078125 0 -1.8125 0.890625q-0.734375 0.890625 -0.734375 2.8125zm9.281982 -6.640625l0 -1.890625l1.640625 0l0 1.890625l-1.640625 0zm0 11.46875l0 -9.671875l1.640625 0l0 9.671875l-1.640625 0zm3.4885254 -2.890625l1.625 -0.25q0.125 0.96875 0.75 1.5q0.625 0.515625 1.75 0.515625q1.125 0 1.671875 -0.453125q0.546875 -0.46875 0.546875 -1.09375q0 -0.546875 -0.484375 -0.875q-0.328125 -0.21875 -1.671875 -0.546875q-1.8125 -0.46875 -2.515625 -0.796875q-0.6875 -0.328125 -1.046875 -0.90625q-0.359375 -0.59375 -0.359375 -1.3125q0 -0.640625 0.296875 -1.1875q0.296875 -0.5625 0.8125 -0.921875q0.375 -0.28125 1.03125 -0.46875q0.671875 -0.203125 1.421875 -0.203125q1.140625 0 2.0 0.328125q0.859375 0.328125 1.265625 0.890625q0.421875 0.5625 0.578125 1.5l-1.609375 0.21875q-0.109375 -0.75 -0.640625 -1.171875q-0.515625 -0.421875 -1.46875 -0.421875q-1.140625 0 -1.625 0.375q-0.46875 0.375 -0.46875 0.875q0 0.3125 0.1875 0.578125q0.203125 0.265625 0.640625 0.4375q0.234375 0.09375 1.4375 0.421875q1.75 0.453125 2.4375 0.75q0.6875 0.296875 1.078125 0.859375q0.390625 0.5625 0.390625 1.40625q0 0.828125 -0.484375 1.546875q-0.46875 0.71875 -1.375 1.125q-0.90625 0.390625 -2.046875 0.390625q-1.875 0 -2.875 -0.78125q-0.984375 -0.78125 -1.25 -2.328125zm9.984375 2.890625l0 -13.359375l1.640625 0l0 7.625l3.890625 -3.9375l2.109375 0l-3.6875 3.59375l4.0625 6.078125l-2.015625 0l-3.203125 -4.953125l-1.15625 1.125l0 3.828125l-1.640625 0zm8.09375 0.234375l3.875 -13.8125l1.3125 0l-3.859375 13.8125l-1.328125 0zm7.9177246 -0.234375l-1.515625 0l0 -13.359375l1.640625 0l0 4.765625q1.046875 -1.296875 2.65625 -1.296875q0.890625 0 1.6875 0.359375q0.796875 0.359375 1.3125 1.015625q0.515625 0.640625 0.796875 1.5625q0.296875 0.921875 0.296875 1.96875q0 2.484375 -1.234375 3.84375q-1.21875 1.359375 -2.953125 1.359375q-1.703125 0 -2.6875 -1.4375l0 1.21875zm-0.015625 -4.90625q0 1.734375 0.484375 2.515625q0.765625 1.265625 2.09375 1.265625q1.078125 0 1.859375 -0.9375q0.78125 -0.9375 0.78125 -2.78125q0 -1.890625 -0.75 -2.796875q-0.75 -0.90625 -1.828125 -0.90625q-1.0625 0 -1.859375 0.9375q-0.78125 0.9375 -0.78125 2.703125zm8.813232 8.625l-0.1875 -1.53125q0.546875 0.140625 0.9375 0.140625q0.546875 0 0.875 -0.1875q0.328125 -0.171875 0.546875 -0.5q0.15625 -0.25 0.5 -1.21875q0.046875 -0.140625 0.140625 -0.40625l-3.671875 -9.6875l1.765625 0l2.015625 5.59375q0.390625 1.078125 0.703125 2.25q0.28125 -1.125 0.671875 -2.203125l2.078125 -5.640625l1.640625 0l-3.6875 9.828125q-0.59375 1.609375 -0.921875 2.203125q-0.4375 0.8125 -1.0 1.1875q-0.5625 0.375 -1.34375 0.375q-0.484375 0 -1.0625 -0.203125zm8.765625 -7.734375l0 -1.640625l5.03125 0l0 1.640625l-5.03125 0zm6.8532715 -7.453125l0 -1.890625l1.640625 0l0 1.890625l-1.640625 0zm0 11.46875l0 -9.671875l1.640625 0l0 9.671875l-1.640625 0zm10.410461 0l0 -1.21875q-0.90625 1.4375 -2.703125 1.4375q-1.15625 0 -2.125 -0.640625q-0.96875 -0.640625 -1.5 -1.78125q-0.53125 -1.140625 -0.53125 -2.625q0 -1.453125 0.484375 -2.625q0.484375 -1.1875 1.4375 -1.8125q0.96875 -0.625 2.171875 -0.625q0.875 0 1.546875 0.375q0.6875 0.359375 1.109375 0.953125l0 -4.796875l1.640625 0l0 13.359375l-1.53125 0zm-5.171875 -4.828125q0 1.859375 0.78125 2.78125q0.78125 0.921875 1.84375 0.921875q1.078125 0 1.828125 -0.875q0.75 -0.890625 0.75 -2.6875q0 -1.984375 -0.765625 -2.90625q-0.765625 -0.9375 -1.890625 -0.9375q-1.078125 0 -1.8125 0.890625q-0.734375 0.890625 -0.734375 2.8125z" fill-rule="nonzero"/><path fill="#6d9eeb" d="m200.00009 309.39005l39.99991 -21.390045l39.99991 21.390045l-15.278595 34.609802l-49.442627 0z" fill-rule="evenodd"/><path stroke="#000000" stroke-width="1.0" stroke-linejoin="round" stroke-linecap="butt" d="m200.00009 309.39005l39.99991 -21.390045l39.99991 21.390045l-15.278595 34.609802l-49.442627 0z" fill-rule="evenodd"/><path fill="#000000" d="m225.05994 313.34982l0 -7.625l1.015625 0l0 3.78125l3.78125 -3.78125l1.375 0l-3.203125 3.09375l3.34375 4.53125l-1.34375 0l-2.71875 -3.859375l-1.234375 1.21875l0 2.640625l-1.015625 0zm10.6545105 0l0 -0.8125q-0.65625 0.9375 -1.75 0.9375q-0.5 0 -0.921875 -0.1875q-0.421875 -0.1875 -0.625 -0.46875q-0.203125 -0.28125 -0.296875 -0.703125q-0.046875 -0.265625 -0.046875 -0.875l0 -3.421875l0.9375 0l0 3.0625q0 0.734375 0.046875 1.0q0.09375 0.359375 0.375 0.578125q0.296875 0.203125 0.703125 0.203125q0.421875 0 0.796875 -0.203125q0.375 -0.21875 0.515625 -0.59375q0.15625 -0.375 0.15625 -1.078125l0 -2.96875l0.9375 0l0 5.53125l-0.828125 0zm3.1608734 0l-0.859375 0l0 -7.625l0.9375 0l0 2.71875q0.59375 -0.75 1.5 -0.75q0.515625 0 0.96875 0.21875q0.453125 0.203125 0.75 0.578125q0.296875 0.359375 0.453125 0.890625q0.171875 0.53125 0.171875 1.125q0 1.421875 -0.703125 2.203125q-0.703125 0.765625 -1.6875 0.765625q-0.96875 0 -1.53125 -0.8125l0 0.6875zm0 -2.796875q0 0.984375 0.265625 1.421875q0.4375 0.734375 1.1875 0.734375q0.625 0 1.0625 -0.53125q0.453125 -0.546875 0.453125 -1.59375q0 -1.078125 -0.4375 -1.59375q-0.421875 -0.515625 -1.03125 -0.515625q-0.609375 0 -1.0625 0.53125q-0.4375 0.53125 -0.4375 1.546875zm8.848373 1.015625l0.96875 0.125q-0.234375 0.84375 -0.859375 1.3125q-0.609375 0.46875 -1.578125 0.46875q-1.203125 0 -1.921875 -0.75q-0.703125 -0.75 -0.703125 -2.09375q0 -1.390625 0.71875 -2.15625q0.71875 -0.78125 1.859375 -0.78125q1.109375 0 1.8125 0.765625q0.703125 0.75 0.703125 2.125q0 0.078125 0 0.234375l-4.125 0q0.046875 0.921875 0.515625 1.40625q0.46875 0.484375 1.15625 0.484375q0.515625 0 0.875 -0.265625q0.359375 -0.28125 0.578125 -0.875zm-3.078125 -1.515625l3.09375 0q-0.0625 -0.6875 -0.359375 -1.046875q-0.453125 -0.53125 -1.15625 -0.53125q-0.640625 0 -1.09375 0.4375q-0.4375 0.421875 -0.484375 1.140625z" fill-rule="nonzero"/><path fill="#000000" d="m227.27869 326.34982l-2.953125 -7.625l1.09375 0l1.984375 5.53125q0.234375 0.671875 0.390625 1.25q0.1875 -0.625 0.421875 -1.25l2.0625 -5.53125l1.03125 0l-3.0 7.625l-1.03125 0zm4.6180573 -6.546875l0 -1.078125l0.9375 0l0 1.078125l-0.9375 0zm0 6.546875l0 -5.53125l0.9375 0l0 5.53125l-0.9375 0zm2.3518524 0l0 -5.53125l0.84375 0l0 0.84375q0.328125 -0.59375 0.59375 -0.78125q0.28125 -0.1875 0.609375 -0.1875q0.46875 0 0.953125 0.3125l-0.3125 0.859375q-0.34375 -0.203125 -0.6875 -0.203125q-0.3125 0 -0.5625 0.1875q-0.234375 0.1875 -0.34375 0.515625q-0.15625 0.5 -0.15625 1.09375l0 2.890625l-0.9375 0zm5.6111145 -0.84375l0.125 0.828125q-0.390625 0.09375 -0.703125 0.09375q-0.5 0 -0.78125 -0.15625q-0.28125 -0.171875 -0.40625 -0.4375q-0.109375 -0.265625 -0.109375 -1.109375l0 -3.171875l-0.6875 0l0 -0.734375l0.6875 0l0 -1.359375l0.9375 -0.5625l0 1.921875l0.9375 0l0 0.734375l-0.9375 0l0 3.234375q0 0.390625 0.046875 0.515625q0.046875 0.109375 0.15625 0.1875q0.109375 0.0625 0.328125 0.0625q0.15625 0 0.40625 -0.046875z" fill-rule="nonzero"/><path fill="#000000" d="m224.26306 339.34982l2.921875 -7.625l1.09375 0l3.125 7.625l-1.15625 0l-0.890625 -2.3125l-3.1875 0l-0.828125 2.3125l-1.078125 0zm2.203125 -3.125l2.578125 0l-0.796875 -2.125q-0.359375 -0.953125 -0.53125 -1.578125q-0.15625 0.734375 -0.421875 1.453125l-0.828125 2.25zm5.7482605 3.125l0 -7.625l2.875 0q0.75 0 1.15625 0.0625q0.5625 0.09375 0.9375 0.359375q0.390625 0.265625 0.609375 0.75q0.234375 0.46875 0.234375 1.03125q0 0.96875 -0.625 1.65625q-0.609375 0.671875 -2.234375 0.671875l-1.953125 0l0 3.09375l-1.0 0zm1.0 -4.0l1.96875 0q0.984375 0 1.390625 -0.359375q0.421875 -0.375 0.421875 -1.03125q0 -0.484375 -0.25 -0.8125q-0.234375 -0.34375 -0.640625 -0.453125q-0.25 -0.078125 -0.9375 -0.078125l-1.953125 0l0 2.734375zm6.2795105 4.0l0 -7.625l1.0 0l0 7.625l-1.0 0z" fill-rule="nonzero"/><path fill="#efefef" d="m304.38654 324.18896l22.11319 -18.29895l-0.9606323 10.094482l513.4774 48.062744l-1.9212646 20.188965l-513.4774 -48.062714l-0.9606018 10.094482z" fill-rule="evenodd"/><path stroke="#000000" stroke-width="1.0" stroke-linejoin="round" stroke-linecap="butt" d="m304.38654 324.18896l22.11319 -18.29895l-0.9606323 10.094482l513.4774 48.062744l-1.9212646 20.188965l-513.4774 -48.062714l-0.9606018 10.094482z" fill-rule="evenodd"/><path fill="#000000" d="m322.75665 332.8587l6.3683167 -12.821686l1.8979492 0.17767334l4.1793213 13.80896l-2.006836 -0.1878357l-1.1567688 -4.1728516l-5.569397 -0.52130127l-1.8457336 3.8917847l-1.8668518 -0.17474365zm4.362152 -5.1000366l4.5115356 0.42230225l-1.0493164 -3.8175354q-0.46243286 -1.7381592 -0.67141724 -2.8405762q-0.38586426 1.2507324 -0.9569092 2.4684448l-1.8338928 3.7673645zm9.489624 6.3966064l1.265625 -13.299316l5.0249023 0.4703369q1.3223267 0.1237793 2.010559 0.31375122q0.9482422 0.26138306 1.5727844 0.7906494q0.6260376 0.5137024 0.9520569 1.375946q0.3260498 0.86227417 0.23129272 1.8577881q-0.16134644 1.6954651 -1.3628235 2.7756958q-1.1844482 1.0661316 -4.0158386 0.8010864l-3.4069824 -0.31887817l-0.51364136 5.3974915l-1.7579346 -0.16455078zm2.4210815 -6.8039856l3.4381104 0.32180786q1.7112732 0.16018677 2.4875793 -0.4105835q0.77630615 -0.57073975 0.88586426 -1.7218018q0.07992554 -0.8399658 -0.2838745 -1.4703369q-0.36380005 -0.6304016 -1.0460815 -0.8825989q-0.4237671 -0.16522217 -1.6216431 -0.27734375l-3.4069824 -0.31887817l-0.4529724 4.759735zm10.263916 7.991333l1.265625 -13.299316l1.7579346 0.16455078l-1.265625 13.299316l-1.7579346 -0.16455078zm16.444702 -2.0231323l1.581665 0.36776733q-0.42138672 1.624054 -1.6006775 2.4709473q-1.1622314 0.8328247 -2.749054 0.68429565q-1.9757385 -0.18493652 -3.0507507 -1.5881042q-1.0750427 -1.4031677 -0.8456116 -3.814148q0.14950562 -1.5710449 0.7739258 -2.6896057q0.62438965 -1.1185303 1.73703 -1.5950623q1.1141357 -0.4920349 2.358673 -0.37554932q1.5712585 0.14706421 2.4914246 1.0335693q0.920166 0.8864746 1.0610352 2.3748474l-1.6090088 0.08477783q-0.14157104 -0.9862366 -0.67129517 -1.5223083q-0.5282593 -0.55163574 -1.3372192 -0.62734985q-1.2290039 -0.11505127 -2.091217 0.698761q-0.86224365 0.81381226 -1.0443115 2.7270508q-0.18502808 1.9443359 0.47735596 2.9008484q0.66381836 0.940979 1.8617249 1.0531006q0.9645386 0.090270996 1.6585999 -0.44110107q0.70965576 -0.5299072 0.9977112 -1.7427368zm9.064026 3.2181091q-0.99038696 0.67626953 -1.8615723 0.9242859q-0.854126 0.23391724 -1.8186646 0.14364624q-1.586792 -0.14852905 -2.3684082 -1.0063477q-0.7816467 -0.8578491 -0.6676636 -2.055542q0.06808472 -0.71554565 0.44955444 -1.2604675q0.3829651 -0.56051636 0.92889404 -0.8546753q0.5629883 -0.30822754 1.2341614 -0.43374634q0.47854614 -0.08074951 1.470459 -0.11343384q1.9979553 -0.04840088 2.9624634 -0.2876587q0.04812622 -0.34075928 0.055511475 -0.41854858q0.09475708 -0.9954834 -0.33200073 -1.4591675q-0.5704651 -0.60266113 -1.815033 -0.7191467q-1.1512146 -0.10775757 -1.7341919 0.24569702q-0.5829773 0.3534546 -0.94366455 1.3397827l-1.581665 -0.36776733q0.31402588 -0.9906616 0.87106323 -1.5662537q0.5585022 -0.591156 1.5400696 -0.84454346q0.98153687 -0.25335693 2.2105408 -0.13833618q1.2445374 0.116485596 1.9787292 0.48339844q0.7511902 0.3527832 1.0660706 0.8373718q0.3319397 0.4704895 0.40829468 1.1524353q0.03781128 0.4272461 -0.0657959 1.5160828l-0.20724487 2.1776733q-0.21612549 2.270996 -0.16494751 2.8878174q0.052642822 0.60128784 0.2949524 1.1889038l-1.6957092 -0.15872192q-0.2156372 -0.5380554 -0.21420288 -1.212738zm0.20785522 -3.668457q-0.92230225 0.29031372 -2.7194824 0.37316895q-1.0245056 0.04534912 -1.4623108 0.19268799q-0.43780518 0.14733887 -0.70373535 0.4677124q-0.2503662 0.32180786 -0.29180908 0.75735474q-0.062164307 0.6532898 0.39422607 1.1354065q0.45635986 0.48214722 1.4053345 0.5709839q0.93341064 0.08734131 1.7030945 -0.24862671q0.78671265 -0.35009766 1.197052 -1.0335693q0.31774902 -0.5352173 0.41989136 -1.60849l0.057739258 -0.6066284zm3.6784973 5.2249146l1.265625 -13.299286l1.6334839 0.15289307l-1.265625 13.299316l-1.6334839 -0.15292358zm4.1268005 0.3862915l1.2655945 -13.299316l1.6334839 0.15289307l-1.2655945 13.299316l-1.6334839 -0.15289307zm3.7938843 -2.5481567l1.6416321 -0.09741211q0.032684326 0.9760437 0.60461426 1.5631409q0.5734253 0.5715637 1.6935425 0.6763916q1.1201172 0.1048584 1.7075195 -0.29525757q0.5888977 -0.41567993 0.6481323 -1.0378723q0.05178833 -0.5444336 -0.39938354 -0.91619873q-0.30596924 -0.24835205 -1.612793 -0.70022583q-1.7601929 -0.6355591 -2.4291992 -1.0277405q-0.65341187 -0.39071655 -0.9564514 -0.99975586q-0.3015747 -0.62457275 -0.23345947 -1.3400879q0.060668945 -0.63772583 0.40808105 -1.15448q0.34887695 -0.5323181 0.89630127 -0.8420105q0.3999939 -0.24505615 1.071167 -0.37054443q0.6881714 -0.1395874 1.4349365 -0.06970215q1.1356506 0.106292725 1.9602051 0.5130615q0.82455444 0.40673828 1.1757202 1.0045471q0.36676025 0.5993042 0.4335327 1.5471497l-1.6231079 0.06777954q-0.037841797 -0.75683594 -0.52682495 -1.2263184q-0.4734192 -0.46801758 -1.4223938 -0.55685425q-1.1356506 -0.106292725 -1.6534424 0.2218628q-0.5022278 0.32965088 -0.5496216 0.8273926q-0.02960205 0.3110962 0.13192749 0.59298706q0.1770935 0.2833557 0.596405 0.49523926q0.22445679 0.11517334 1.3912659 0.5539551q1.6994629 0.61416626 2.355835 0.9737854q0.6563721 0.35961914 0.9920349 0.95599365q0.33563232 0.5963745 0.25567627 1.4363403q-0.078430176 0.82440186 -0.6287842 1.494751q-0.53482056 0.6718445 -1.4756165 0.9918213q-0.93930054 0.30441284 -2.0749512 0.1980896q-1.8668518 -0.17474365 -2.7884827 -1.0456543q-0.9060974 -0.8694763 -1.0240173 -2.4341736zm14.570404 0.23391724l0.15542603 -1.6332397l5.009369 0.46887207l-0.15542603 1.6332703l-5.009369 -0.4689026zm21.739899 1.3601074l1.7149963 0.6156311q-0.7658081 2.1096802 -2.3065796 3.12677q-1.5393066 1.0015259 -3.623932 0.8063965q-2.146881 -0.20095825 -3.4174194 -1.1987q-1.25354 -1.0118408 -1.8122559 -2.7276306q-0.541687 -1.7298889 -0.35961914 -3.6431274q0.1968689 -2.0687866 1.1368408 -3.5344238q0.94143677 -1.4812317 2.4792786 -2.1376343q1.5548706 -0.6705017 3.3128357 -0.5059509q1.991272 0.18637085 3.2485352 1.3241272q1.2727966 1.1391907 1.6255798 3.039734l-1.7653198 0.24276733q-0.32904053 -1.4902649 -1.1536255 -2.2265625q-0.80752563 -0.7503967 -2.1298828 -0.874176q-1.5401306 -0.14416504 -2.6364746 0.4908142q-1.096344 0.63494873 -1.6347961 1.8400269q-0.5369873 1.1894836 -0.66278076 2.5116577q-0.16134644 1.6954651 0.21655273 3.0019836q0.3779297 1.3065491 1.3595581 2.0418396q0.9831238 0.7197571 2.1965637 0.8333435q1.4779053 0.13833618 2.58609 -0.62106323q1.1081848 -0.7593994 1.6258545 -2.4058228zm3.2626648 5.0133667l0.91625977 -9.628387l1.4623718 0.13690186l-0.13912964 1.4621277q0.65774536 -0.9741821 1.1555176 -1.2571411q0.5133667 -0.28152466 1.0889587 -0.22763062q0.8245239 0.077178955 1.6298523 0.6861267l-0.7036438 1.4563904q-0.5726929 -0.41455078 -1.1638489 -0.46987915q-0.5444946 -0.050964355 -0.99560547 0.23635864q-0.45114136 0.287323 -0.6911011 0.829834q-0.36291504 0.84484863 -0.46209717 1.8870239l-0.47961426 5.039734l-1.6179199 -0.15145874zm13.091919 -1.897522l1.6609192 0.35946655q-0.545105 1.4398499 -1.696991 2.1637878q-1.1503906 0.708374 -2.8305664 0.5510864q-2.1157532 -0.19802856 -3.2374268 -1.6055603q-1.1046753 -1.4216309 -0.88116455 -3.7704163q0.23239136 -2.4420776 1.6042786 -3.6632996q1.3874207 -1.2197571 3.3786926 -1.0333862q1.9290771 0.18057251 3.016693 1.6163025q1.1046753 1.4216614 0.87820435 3.8015137q-0.014801025 0.1555481 -0.04147339 0.43554688l-7.187317 -0.67276q-0.057647705 1.5953369 0.66989136 2.5265503q0.7290344 0.91567993 1.9269409 1.0278015q0.90231323 0.084472656 1.5845337 -0.32247925q0.68374634 -0.42248535 1.1547852 -1.414154zm-5.115509 -3.146698l5.382721 0.5038452q0.0065612793 -1.2234497 -0.44909668 -1.8781433q-0.68756104 -1.0216675 -1.9320984 -1.1381531q-1.1201172 -0.10482788 -1.9704895 0.5845337q-0.8333435 0.67529297 -1.0310364 1.9279175zm14.952881 5.997772q-0.9904175 0.67626953 -1.8615723 0.9242859q-0.854126 0.23391724 -1.8186646 0.14364624q-1.586792 -0.14852905 -2.3684387 -1.0063782q-0.7816162 -0.8578186 -0.66763306 -2.055542q0.06808472 -0.71551514 0.44955444 -1.260437q0.3829651 -0.56051636 0.92889404 -0.8546753q0.5629883 -0.30822754 1.2341309 -0.43374634q0.47857666 -0.08074951 1.4704895 -0.11343384q1.9979553 -0.04840088 2.9624634 -0.2876892q0.04812622 -0.34072876 0.055511475 -0.41851807q0.09472656 -0.9954834 -0.33200073 -1.4591675q-0.5704651 -0.60266113 -1.815033 -0.7191467q-1.1512146 -0.10775757 -1.7341919 0.24569702q-0.5829773 0.3534546 -0.94366455 1.3397522l-1.581665 -0.36773682q0.31402588 -0.9906616 0.87106323 -1.5662537q0.5585022 -0.591156 1.5400391 -0.84454346q0.9815674 -0.25338745 2.2105713 -0.13833618q1.2445374 0.116485596 1.9786987 0.48339844q0.7512207 0.3527832 1.0661011 0.8373718q0.33190918 0.47045898 0.40829468 1.1524353q0.03781128 0.4272461 -0.0657959 1.5160828l-0.20724487 2.1776733q-0.21612549 2.270996 -0.16494751 2.8878174q0.052642822 0.60128784 0.2949524 1.1889038l-1.6957092 -0.15872192q-0.2156372 -0.5380554 -0.21420288 -1.212738zm0.2078247 -3.668457q-0.9222717 0.29031372 -2.719452 0.37316895q-1.0245056 0.04534912 -1.4623108 0.19268799q-0.43780518 0.14733887 -0.70373535 0.4677124q-0.2503662 0.32180786 -0.29180908 0.75735474q-0.062164307 0.6532898 0.39419556 1.1354065q0.45639038 0.48214722 1.405365 0.57095337q0.93341064 0.087371826 1.7030945 -0.24859619q0.7866821 -0.35009766 1.197052 -1.0335693q0.31774902 -0.5352173 0.41989136 -1.60849l0.05770874 -0.6066284zm7.4269104 4.1006165l0.09567261 1.4684143q-0.69781494 0.075927734 -1.2423096 0.024963379q-0.88674927 -0.08300781 -1.3579407 -0.40957642q-0.45562744 -0.32513428 -0.6149292 -0.7951355q-0.15783691 -0.4855957 -0.018707275 -1.9477234l0.5284729 -5.5530396l-1.1979065 -0.11212158l0.119903564 -1.2599487l1.1979065 0.11212158l0.22647095 -2.3798828l1.7111816 -0.8284912l-0.31973267 3.3598328l1.6490479 0.1543274l-0.119903564 1.2599487l-1.6490479 -0.15435791l-0.537323 5.6463623q-0.06515503 0.6844177 -0.006591797 0.8939209q0.07409668 0.2109375 0.24893188 0.35284424q0.19189453 0.12783813 0.5652466 0.16278076q0.26446533 0.024749756 0.7215576 0.004760742zm8.349762 -0.86624146l1.6609192 0.35946655q-0.545105 1.4398499 -1.696991 2.1637878q-1.1503906 0.708374 -2.8305664 0.5510864q-2.1157532 -0.19802856 -3.2374573 -1.6055603q-1.1046448 -1.4216309 -0.88113403 -3.7704163q0.23239136 -2.4420776 1.6042786 -3.6632996q1.3873901 -1.2197571 3.3786926 -1.0333862q1.9290771 0.18057251 3.016693 1.6163025q1.1046753 1.4216614 0.87820435 3.8015137q-0.014801025 0.1555481 -0.04147339 0.43554688l-7.187317 -0.67276q-0.057647705 1.5953369 0.66989136 2.5265503q0.7290344 0.91567993 1.9269409 1.0278015q0.9022827 0.084472656 1.5845337 -0.32247925q0.68374634 -0.42248535 1.1547852 -1.414154zm-5.115509 -3.146698l5.382721 0.5038452q0.0065612793 -1.2234497 -0.44909668 -1.8781433q-0.68756104 -1.0216675 -1.9320984 -1.1381531q-1.1201172 -0.10482788 -1.9704895 0.5845337q-0.8333435 0.67526245 -1.0310364 1.9279175zm13.918335 7.093628l1.2655945 -13.299316l4.589325 0.42959595q1.5401306 0.14413452 2.3454285 0.42352295q1.111969 0.3551941 1.8543396 1.1308594q0.9734802 0.98565674 1.355133 2.4180908q0.39718628 1.4338684 0.22845459 3.2071228q-0.1435852 1.5087891 -0.6139221 2.6574707q-0.46881104 1.1331177 -1.1014099 1.842865q-0.6170044 0.71121216 -1.313324 1.1011658q-0.69485474 0.37435913 -1.6504822 0.5203247q-0.9541321 0.1303711 -2.1520386 0.018249512l-4.8070984 -0.44995117zm1.9074402 -1.4064941l2.8469238 0.2664795q1.3067932 0.12234497 2.0757446 -0.041107178q0.77041626 -0.17895508 1.2644958 -0.5878296q0.68148804 -0.5639343 1.1243896 -1.5896301q0.45846558 -1.024231 0.6020508 -2.53302q0.19836426 -2.0843506 -0.37957764 -3.2683716q-0.5779114 -1.1839905 -1.5224915 -1.6490479q-0.6734009 -0.34552002 -2.2446594 -0.49258423l-2.8002625 -0.26211548l-0.96661377 10.157227zm15.302765 3.0174255l-3.8837585 -13.781311l1.9135132 0.17910767l2.5344238 9.982758q0.309021 1.2059326 0.49282837 2.2431946q0.4147644 -1.0596924 0.92285156 -2.1106873l4.512909 -9.32312l1.7890625 0.16748047l-6.4772034 12.811493l-1.8046265 -0.1689148zm7.1052246 0.6650696l0.17764282 -1.8665771l1.8668213 0.17474365l-0.1776123 1.8665466q-0.097717285 1.0266113 -0.53027344 1.6138611q-0.41851807 0.60424805 -1.2444763 0.8721924l-0.384552 -0.7421875q0.53411865 -0.16970825 0.82595825 -0.59750366q0.29034424 -0.41223145 0.39990234 -1.2337341l-0.93341064 -0.08734131zm10.165924 0.9515381l1.265625 -13.299316l1.7579346 0.16455078l-0.51956177 5.459717l6.907318 0.6465454l0.51953125 -5.459717l1.7579346 0.16455078l-1.265625 13.299316l-1.7579346 -0.16455078l0.5965576 -6.2685547l-6.9072876 -0.6465454l-0.5965576 6.2685547l-1.7579346 -0.16455078zm13.002014 -3.6478882q0.25457764 -2.675415 1.8538818 -3.8125916q1.3466797 -0.9567871 3.1357422 -0.78930664q1.991272 0.18637085 3.1270752 1.6109314q1.1372681 1.4089966 0.91815186 3.71109q-0.17614746 1.8510132 -0.8383179 2.8718872q-0.66070557 1.0052795 -1.7904053 1.4958801q-1.1140747 0.49206543 -2.3742065 0.374115q-2.0224 -0.18930054 -3.144104 -1.5968323q-1.1202393 -1.4230957 -0.8878174 -3.8651733zm1.6801147 0.15725708q-0.17614746 1.8510132 0.5284424 2.858551q0.7216797 0.99346924 1.9506226 1.10849q1.213501 0.113586426 2.1098022 -0.7284241q0.8977661 -0.85757446 1.0783691 -2.755249q0.17022705 -1.7887878 -0.55145264 -2.7822266q-0.72161865 -0.99346924 -1.9350586 -1.1070557q-1.2290039 -0.11502075 -2.1253052 0.72698975q-0.87927246 0.8279114 -1.0554199 2.6789246zm12.499939 4.559784l0.095703125 1.4684143q-0.69781494 0.075927734 -1.2423096 0.024963379q-0.88671875 -0.08300781 -1.3579102 -0.40957642q-0.45562744 -0.32513428 -0.6149292 -0.795166q-0.15783691 -0.4855652 -0.018737793 -1.9476929l0.5284424 -5.55307l-1.197876 -0.11212158l0.11993408 -1.2599182l1.197876 0.11212158l0.22650146 -2.3798828l1.7111816 -0.8284912l-0.31976318 3.3598022l1.6490479 0.15435791l-0.11987305 1.2599487l-1.6490479 -0.15435791l-0.5373535 5.6463623q-0.06512451 0.6844177 -0.006591797 0.8939209q0.07409668 0.2109375 0.2489624 0.35284424q0.1918335 0.12780762 0.5652466 0.16278076q0.26446533 0.024749756 0.7214966 0.004760742zm6.8220825 2.1137085l1.265564 -13.299286l5.0249634 0.4703369q1.3223267 0.1237793 2.010559 0.31375122q0.9482422 0.26138306 1.5727539 0.7906189q0.6260376 0.5137024 0.9520874 1.3759766q0.3260498 0.86227417 0.2312622 1.8577576q-0.16131592 1.6954651 -1.362793 2.7756958q-1.1844482 1.0661316 -4.015869 0.80111694l-3.4069824 -0.3189087l-0.51361084 5.3974915l-1.7579346 -0.16455078zm2.4210815 -6.803955l3.4381104 0.32180786q1.7112427 0.16018677 2.4875488 -0.4105835q0.77630615 -0.57077026 0.88586426 -1.7218018q0.079956055 -0.8399658 -0.2838745 -1.4703674q-0.36376953 -0.6304016 -1.0460815 -0.88256836q-0.4237671 -0.16522217 -1.6216431 -0.27734375l-3.4069824 -0.3189087l-0.4529419 4.7597656zm9.719421 7.940338l1.265625 -13.299286l1.6334839 0.15289307l-1.265625 13.299286l-1.6334839 -0.15289307zm10.473999 0.9804077l0.13470459 -1.4154968q-1.2755127 1.5284119 -3.2045898 1.3478394q-0.85565186 -0.080078125 -1.5712891 -0.47662354q-0.70007324 -0.39508057 -1.010498 -0.92633057q-0.31048584 -0.53125 -0.38238525 -1.2598572q-0.06451416 -0.47683716 0.036132812 -1.5345764l0.56695557 -5.9574585l1.6334839 0.15289307l-0.5076904 5.335266q-0.121398926 1.2755127 -0.055419922 1.7367859q0.09484863 0.65231323 0.55718994 1.0722046q0.46228027 0.41992188 1.1934814 0.4883728q0.73114014 0.06842041 1.404541 -0.24517822q0.69036865 -0.32772827 1.0155029 -0.94070435q0.32666016 -0.62854004 0.44360352 -1.8573608l0.49145508 -5.1641846l1.6334839 0.15289307l-0.91625977 9.628387l-1.4624023 -0.13687134zm3.6433716 1.1413879l1.5646362 0.38183594q0.037841797 0.75683594 0.45788574 1.1257019q0.56378174 0.50787354 1.6217041 0.6069031q1.1356201 0.106292725 1.7852783 -0.28799438q0.66522217 -0.39285278 0.95996094 -1.1813049q0.171875 -0.48608398 0.30877686 -2.0896912q-1.1777954 1.1609192 -2.7801514 1.0109253q-1.991333 -0.18640137 -2.9440918 -1.7193604q-0.9528198 -1.532959 -0.76190186 -3.5395203q0.1317749 -1.3843689 0.7406006 -2.5043945q0.62438965 -1.1185303 1.6170654 -1.6533508q1.0096436 -0.5489197 2.3008423 -0.42807007q1.6957397 0.15872192 2.670044 1.6309204l0.10949707 -1.1510315l1.5090332 0.14123535l-0.79193115 8.321777q-0.21459961 2.2554626 -0.7701416 3.14505q-0.539978 0.89105225 -1.5874023 1.3422852q-1.0319214 0.45266724 -2.4942627 0.3157959q-1.7113037 -0.16018677 -2.7106934 -1.0383911q-0.98535156 -0.86120605 -0.80474854 -2.4293213zm1.9041138 -5.659668q-0.18060303 1.8976746 0.48327637 2.838623q0.6793823 0.94241333 1.8150635 1.0487366q1.1200562 0.10482788 1.9638062 -0.6793213q0.8451538 -0.79971313 1.0213013 -2.6507263q0.1687622 -1.7732544 -0.5402832 -2.7341309q-0.69195557 -0.9749756 -1.7965088 -1.0783691q-1.0889893 -0.10192871 -1.935669 0.7133179q-0.84521484 0.79971313 -1.0109863 2.54187zm7.5618896 5.9807434l5.166626 -13.389252l1.3068237 0.12231445l-5.151123 13.390717l-1.3223267 -0.1237793zm16.6073 -12.098694l1.7579346 0.16455078l-0.7312622 7.6840515q-0.190979 2.0065613 -0.75457764 3.1464844q-0.56365967 1.1399231 -1.8170776 1.7758789q-1.2518921 0.62042236 -3.1809692 0.43984985q-1.8668213 -0.17474365 -3.0040283 -0.9246216q-1.1201782 -0.76394653 -1.5180664 -2.0252686q-0.3809204 -1.2754211 -0.17956543 -3.3908691l0.7312012 -7.6840515l1.7579346 0.16455078l-0.7312012 7.6840515q-0.16430664 1.7265625 0.068359375 2.5800781q0.24975586 0.839447 0.9846802 1.3633423q0.75042725 0.5253601 1.8861084 0.63165283q1.9446411 0.18200684 2.8535156 -0.6274414q0.90893555 -0.8094177 1.145752 -3.2981873l0.7312622 -7.6840515zm3.2189941 13.719086l0.91625977 -9.628387l1.4623413 0.13687134l-0.13024902 1.3688354q1.2088623 -1.4875793 3.2156982 -1.2997437q0.8712158 0.08157349 1.5727539 0.4610901q0.7015991 0.37954712 1.0105591 0.92633057q0.32598877 0.53271484 0.39941406 1.2457886q0.05041504 0.45980835 -0.057678223 1.5953064l-0.56396484 5.926361l-1.6334839 -0.15289307l0.55804443 -5.8641357q0.09472656 -0.9955139 -0.061584473 -1.4966431q-0.13934326 -0.5152283 -0.5934448 -0.855896q-0.4541626 -0.34069824 -1.107544 -0.40185547q-1.0423584 -0.0975647 -1.8682861 0.49993896q-0.8088989 0.58340454 -0.9850464 2.4344177l-0.5003052 5.2575073l-1.6334839 -0.15289307zm10.532776 0.9859009l1.265625 -13.299316l5.0249023 0.4703369q1.3223877 0.1237793 2.010559 0.31375122q0.9482422 0.26138306 1.572815 0.7906494q0.6260376 0.5137024 0.95202637 1.375946q0.3260498 0.86227417 0.23132324 1.8577881q-0.16137695 1.6954651 -1.362854 2.7756958q-1.1844482 1.0661316 -4.015808 0.8010864l-3.4069824 -0.31887817l-0.5136719 5.3974915l-1.7579346 -0.16455078zm2.4210815 -6.8039856l3.4381104 0.32180786q1.7113037 0.16018677 2.4876099 -0.4105835q0.77630615 -0.57073975 0.88586426 -1.7218018q0.07989502 -0.8399658 -0.2838745 -1.4703674q-0.36376953 -0.6303711 -1.0460815 -0.88256836q-0.4237671 -0.16522217 -1.6216431 -0.27734375l-3.4069824 -0.3189087l-0.45300293 4.7597656zm9.719421 7.9403687l1.265625 -13.299316l1.6334839 0.15289307l-1.265625 13.299316l-1.6334839 -0.15289307zm10.47406 0.9803772l0.13470459 -1.4154663q-1.2755737 1.5284119 -3.2045898 1.3478394q-0.85565186 -0.08010864 -1.5712891 -0.47665405q-0.7001343 -0.39508057 -1.0105591 -0.92633057q-0.3104248 -0.53125 -0.38238525 -1.2598572q-0.064453125 -0.47683716 0.036193848 -1.5345459l0.56689453 -5.957489l1.6335449 0.15289307l-0.50775146 5.3352966q-0.121398926 1.2754822 -0.055419922 1.7367554q0.09490967 0.65231323 0.55718994 1.0722351q0.46228027 0.41989136 1.1934814 0.4883423q0.73114014 0.06845093 1.404541 -0.24517822q0.69036865 -0.32769775 1.015564 -0.94070435q0.32659912 -0.62854004 0.44354248 -1.8573608l0.49145508 -5.1641846l1.6334839 0.15292358l-0.91625977 9.628387l-1.4623413 -0.13690186zm3.6433105 1.1413879l1.5646362 0.38186646q0.037841797 0.7568054 0.45794678 1.1257019q0.56378174 0.50787354 1.6216431 0.60687256q1.1356812 0.10632324 1.7853394 -0.28799438q0.66516113 -0.39282227 0.95996094 -1.1812744q0.17181396 -0.4861145 0.30871582 -2.0897217q-1.1777954 1.1609192 -2.7801514 1.0109253q-1.991272 -0.18637085 -2.9440918 -1.7193604q-0.9528198 -1.532959 -0.7618408 -3.5395203q0.13171387 -1.3843689 0.74053955 -2.504364q0.6244507 -1.1185608 1.6170654 -1.6533813q1.0096436 -0.5489197 2.3009033 -0.42807007q1.6956787 0.15872192 2.669983 1.6309509l0.109558105 -1.151062l1.5090332 0.14123535l-0.79193115 8.321808q-0.21466064 2.2554321 -0.77020264 3.1450195q-0.539978 0.89108276 -1.5874023 1.3422852q-1.0319214 0.45266724 -2.4942627 0.3157959q-1.7112427 -0.16018677 -2.7106934 -1.0383911q-0.98535156 -0.86120605 -0.80474854 -2.4293213zm1.9041138 -5.659668q-0.18054199 1.8976746 0.48327637 2.838623q0.6793823 0.94244385 1.8150635 1.0487366q1.1201172 0.10482788 1.9638062 -0.6793213q0.84521484 -0.79971313 1.0213623 -2.6507263q0.16870117 -1.7732239 -0.5402832 -2.7341309q-0.6920166 -0.9749756 -1.7965698 -1.0783691q-1.0889893 -0.10192871 -1.935669 0.7133484q-0.8451538 0.79971313 -1.0109863 2.5418396z" fill-rule="nonzero"/><path fill="#000000" fill-opacity="0.0" d="m304.0 368.0l48.0 0l0 48.0l-48.0 0z" fill-rule="evenodd"/><path fill="#000000" d="m318.25 394.91998l-5.171875 -13.359375l1.921875 0l3.46875 9.703125q0.421875 1.171875 0.703125 2.1875q0.3125 -1.09375 0.71875 -2.1875l3.609375 -9.703125l1.796875 0l-5.234375 13.359375l-1.8125 0zm8.584198 0l0 -13.359375l2.65625 0l3.15625 9.453125q0.4375 1.328125 0.640625 1.984375q0.234375 -0.734375 0.703125 -2.140625l3.203125 -9.296875l2.375 0l0 13.359375l-1.703125 0l0 -11.171875l-3.875 11.171875l-1.59375 0l-3.859375 -11.375l0 11.375l-1.703125 0z" fill-rule="nonzero"/></g></svg>